<?xml version="1.0" encoding="utf-8"?>
<!-- Generator: Adobe Illustrator 16.0.0, SVG Export Plug-In . SVG Version: 6.00 Build 0)  -->
<!DOCTYPE svg PUBLIC "-//W3C//DTD SVG 1.1//EN" "http://www.w3.org/Graphics/SVG/1.1/DTD/svg11.dtd">
<svg version="1.1" id="Layer_1" xmlns="http://www.w3.org/2000/svg" xmlns:xlink="http://www.w3.org/1999/xlink" x="0px" y="0px"
	 width="177px" height="178.652px" viewBox="0 0 177 178.652" enable-background="new 0 0 177 178.652" xml:space="preserve">
<g>
	<g>
		<g>
			<path fill="#FFD700" d="M21.864,102.543c0.395-6.367,11.199-10.465,20.137-12.766c12.259-3.154,28.461-4.893,45.619-4.893
				l0.93,0.002c32.734,0,66.602,6.621,66.602,17.705l-0.389,1.311l-11.908-3.414v-0.793c0-4.951-22.303-10.469-54.307-10.469
				c-32.01,0-54.316,5.518-54.316,10.469v0.793l-11.839,3.285L21.864,102.543z"/>
		</g>
		<polygon fill="#333E48" points="88.501,8.361 21.847,170.291 32.048,170.291 88.501,42.68 144.952,170.291 155.151,170.291 		"/>
		<g>
			<path fill="#FFD700" d="M88.546,120.324c-31.553,0-58.256-5.486-64.943-13.342c-1.203-1.412-1.83-2.904-1.736-4.434l0.348-0.727
				l12.018-3.41v1.311c0,4.951,22.307,10.467,54.316,10.467c32.002,0,54.307-5.516,54.307-10.467v-1.311l12.076,3.213l0.223,0.994
				c0.002,6.387-10.852,10.482-19.953,12.795c-12.467,3.166-29.035,4.91-46.652,4.91H88.546z"/>
		</g>
	</g>
</g>
</svg>
