<?xml version="1.0" encoding="utf-8"?>
<!-- Generator: Adobe Illustrator 16.0.0, SVG Export Plug-In . SVG Version: 6.00 Build 0)  -->
<!DOCTYPE svg PUBLIC "-//W3C//DTD SVG 1.1//EN" "http://www.w3.org/Graphics/SVG/1.1/DTD/svg11.dtd">
<svg version="1.1" id="Capa_1" xmlns="http://www.w3.org/2000/svg" xmlns:xlink="http://www.w3.org/1999/xlink" x="0px" y="0px"
	 width="60.734px" height="60.732px" viewBox="0 0 60.734 60.732" enable-background="new 0 0 60.734 60.732" xml:space="preserve">
<g>
	<path fill="#3B5998" d="M57.378,0.001H3.352C1.502,0.001,0,1.5,0,3.353v54.025c0,1.854,1.502,3.354,3.354,3.354h29.086v-23.52
		h-7.914v-9.167h7.914v-6.76c0-7.844,4.789-12.116,11.787-12.116c3.354,0,6.23,0.251,7.069,0.359v8.198l-4.854,0.002
		c-3.805,0-4.539,1.81-4.539,4.462v5.852h9.078l-1.188,9.166h-7.892V60.73h15.475c1.854,0,3.355-1.503,3.355-3.352V3.351
		C60.731,1.5,59.23,0.001,57.378,0.001z"/>
</g>
</svg>
