<?xml version="1.0" encoding="utf-8"?>
<!-- Generator: Adobe Illustrator 16.0.0, SVG Export Plug-In . SVG Version: 6.00 Build 0)  -->
<!DOCTYPE svg PUBLIC "-//W3C//DTD SVG 1.1//EN" "http://www.w3.org/Graphics/SVG/1.1/DTD/svg11.dtd">
<svg version="1.1" xmlns="http://www.w3.org/2000/svg" xmlns:xlink="http://www.w3.org/1999/xlink" x="0px" y="0px" width="200px"
	 height="200px" viewBox="0 0 200 200" enable-background="new 0 0 200 200" xml:space="preserve">
<g id="圖層_2" display="none">
</g>
<g id="圖層_3" display="none">
</g>
<g id="圖層_4" display="none">
</g>
<g id="圖層_1">
	<g>
		<g>
			<path fill-rule="evenodd" clip-rule="evenodd" fill="#C5C9C9" d="M155.534,139.308c-16.705,0-33.411,0-50.118,0
				c-3.28-1.309-4.018-2.414-4.018-6.017c0-8.528,0-17.054,0-25.581c0-13.901,0.004-27.805-0.007-41.709
				c0-1.208,0.182-2.338,0.886-3.348c0.773-1.107,1.896-1.675,3.139-2.057c13.479,0,26.956,0,40.433,0
				c4.367,4.755,8.728,9.514,13.115,14.25c0.435,0.473,0.6,0.933,0.6,1.561c-0.017,10.584-0.011,21.165-0.011,31.746
				c0,8.633-0.011,17.268,0.007,25.9c0.006,1.758-0.528,3.241-1.971,4.274C156.979,138.763,156.223,138.987,155.534,139.308z
				 M142.921,64.64c-0.362,0-0.639,0-0.914,0c-11.708,0-23.415,0-35.121,0c-1.29,0-1.455,0.167-1.455,1.461
				c0,22.567,0,45.137,0,67.704c0,1.301,0.158,1.46,1.453,1.46c15.729,0,31.457,0,47.186,0c1.291,0,1.449-0.16,1.449-1.465
				c0-18.161,0-36.324,0-54.486c0-0.272,0-0.545,0-0.892c-0.362,0-0.639,0-0.914,0c-2.971,0-5.944-0.065-8.914,0.025
				c-1.733,0.054-2.851-0.799-2.798-2.759C142.988,72.055,142.921,68.417,142.921,64.64z M152.95,74.327
				c-2.013-2.188-3.917-4.259-5.942-6.46c0,2.268,0,4.341,0,6.46C148.96,74.327,150.865,74.327,152.95,74.327z"/>
			<path fill-rule="evenodd" clip-rule="evenodd" fill="#FFFFFF" d="M142.921,64.64c0,3.777,0.067,7.415-0.028,11.049
				c-0.052,1.96,1.065,2.813,2.798,2.759c2.97-0.091,5.942-0.025,8.914-0.025c0.275,0,0.552,0,0.914,0c0,0.347,0,0.619,0,0.892
				c0,18.163,0,36.325,0,54.486c0,1.305-0.158,1.465-1.449,1.465c-15.729,0-31.457,0-47.186,0c-1.295,0-1.453-0.159-1.453-1.46
				c0-22.567,0-45.137,0-67.704c0-1.294,0.165-1.461,1.455-1.461c11.707,0,23.413,0,35.121,0
				C142.282,64.64,142.559,64.64,142.921,64.64z M129.817,102.24c-5.507,0-11.015,0-16.524,0.003c-0.282,0-0.565-0.01-0.844,0.021
				c-0.778,0.095-1.326,0.684-1.351,1.43c-0.026,0.76,0.464,1.369,1.243,1.506c0.3,0.055,0.611,0.071,0.918,0.071
				c11.015,0.004,22.031,0.004,33.049,0c0.331,0,0.667-0.016,0.99-0.078c0.745-0.14,1.208-0.722,1.2-1.464
				c-0.007-0.722-0.509-1.328-1.237-1.448c-0.301-0.048-0.613-0.038-0.92-0.038C140.834,102.24,135.327,102.24,129.817,102.24z
				 M129.784,112.262c-5.535,0-11.069-0.002-16.603,0.006c-0.354,0-0.723,0.022-1.059,0.124c-0.659,0.196-1.005,0.69-1.018,1.375
				c-0.013,0.687,0.333,1.184,0.977,1.406c0.329,0.114,0.703,0.137,1.058,0.139c11.119,0.004,22.238,0.004,33.357,0
				c0.305,0,0.619-0.023,0.909-0.103c0.701-0.189,1.067-0.677,1.087-1.399c0.022-0.721-0.39-1.269-1.119-1.449
				c-0.318-0.079-0.658-0.093-0.987-0.096C140.851,112.262,135.317,112.262,129.784,112.262z M129.784,85.195
				c5.562,0,11.122,0.001,16.681-0.006c0.329,0,0.672-0.011,0.984-0.102c0.691-0.208,1.054-0.711,1.041-1.435
				c-0.013-0.72-0.381-1.215-1.083-1.398c-0.318-0.082-0.656-0.107-0.987-0.107c-11.069-0.005-22.138-0.005-33.207-0.001
				c-0.303,0-0.615,0.016-0.911,0.081c-0.764,0.17-1.213,0.737-1.204,1.469c0.007,0.719,0.492,1.306,1.241,1.45
				c0.299,0.056,0.611,0.048,0.918,0.048C118.767,85.195,124.275,85.195,129.784,85.195z M129.782,95.388
				c5.507,0,11.015,0,16.522-0.004c0.358,0,0.723,0.004,1.07-0.066c0.669-0.133,1.132-0.767,1.124-1.458
				c-0.009-0.696-0.488-1.307-1.161-1.428c-0.299-0.055-0.611-0.056-0.918-0.056c-11.067-0.003-22.134-0.003-33.201,0
				c-0.305,0-0.617,0-0.918,0.051c-0.686,0.114-1.176,0.7-1.202,1.394c-0.028,0.721,0.459,1.374,1.165,1.504
				c0.324,0.063,0.664,0.061,0.997,0.061C118.767,95.388,124.275,95.388,129.782,95.388z"/>
			<path fill-rule="evenodd" clip-rule="evenodd" fill="#FFFFFF" d="M152.95,74.327c-2.085,0-3.99,0-5.942,0c0-2.119,0-4.192,0-6.46
				C149.033,70.068,150.937,72.139,152.95,74.327z"/>
			<path fill-rule="evenodd" clip-rule="evenodd" fill="#B4C689" d="M129.817,102.24c5.51,0,11.017,0,16.524,0.003
				c0.307,0,0.619-0.01,0.92,0.038c0.728,0.12,1.23,0.726,1.237,1.448c0.008,0.742-0.455,1.324-1.2,1.464
				c-0.323,0.062-0.659,0.078-0.99,0.078c-11.018,0.004-22.034,0.004-33.049,0c-0.307,0-0.618-0.016-0.918-0.071
				c-0.779-0.137-1.27-0.746-1.243-1.506c0.024-0.746,0.572-1.335,1.351-1.43c0.279-0.031,0.562-0.021,0.844-0.021
				C118.802,102.24,124.31,102.24,129.817,102.24z"/>
			<path fill-rule="evenodd" clip-rule="evenodd" fill="#B4C689" d="M129.784,112.262c5.534,0,11.067,0,16.603,0.003
				c0.329,0.003,0.669,0.017,0.987,0.096c0.729,0.18,1.141,0.728,1.119,1.449c-0.02,0.723-0.386,1.21-1.087,1.399
				c-0.29,0.079-0.604,0.103-0.909,0.103c-11.119,0.004-22.238,0.004-33.357,0c-0.355-0.002-0.729-0.025-1.058-0.139
				c-0.645-0.222-0.99-0.719-0.977-1.406c0.013-0.684,0.359-1.178,1.018-1.375c0.336-0.102,0.705-0.124,1.059-0.124
				C118.715,112.26,124.249,112.262,129.784,112.262z"/>
			<path fill-rule="evenodd" clip-rule="evenodd" fill="#B4C689" d="M129.784,85.195c-5.509,0-11.017,0-16.526-0.002
				c-0.307,0-0.619,0.008-0.918-0.048c-0.749-0.144-1.234-0.73-1.241-1.45c-0.009-0.732,0.44-1.299,1.204-1.469
				c0.296-0.065,0.608-0.081,0.911-0.081c11.069-0.004,22.138-0.004,33.207,0.001c0.331,0,0.669,0.025,0.987,0.107
				c0.702,0.184,1.07,0.679,1.083,1.398c0.013,0.724-0.35,1.227-1.041,1.435c-0.312,0.091-0.656,0.102-0.984,0.102
				C140.905,85.196,135.346,85.195,129.784,85.195z"/>
			<path fill-rule="evenodd" clip-rule="evenodd" fill="#B4C689" d="M129.782,95.388c-5.507,0-11.015,0-16.522-0.003
				c-0.333,0-0.673,0.002-0.997-0.061c-0.706-0.13-1.192-0.783-1.165-1.504c0.026-0.693,0.516-1.279,1.202-1.394
				c0.301-0.051,0.613-0.051,0.918-0.051c11.067-0.003,22.134-0.003,33.201,0c0.307,0,0.619,0.001,0.918,0.056
				c0.673,0.121,1.152,0.731,1.161,1.428c0.008,0.691-0.455,1.325-1.124,1.458c-0.348,0.07-0.712,0.066-1.07,0.066
				C140.797,95.388,135.29,95.388,129.782,95.388z"/>
		</g>
		<g>
			<line fill="none" stroke="#B4C689" stroke-width="3" stroke-miterlimit="10" x1="34.333" y1="55.405" x2="57.565" y2="78.637"/>
			<line fill="none" stroke="#B4C689" stroke-width="3" stroke-miterlimit="10" x1="34.331" y1="78.635" x2="57.565" y2="55.402"/>
		</g>
	</g>
	<g>
		<path fill-rule="evenodd" clip-rule="evenodd" fill="#C5C9C9" d="M57.542,153.692c-2.115-0.478-3.891-1.511-4.782-3.623
			c-0.421-0.997-0.681-2.151-0.689-3.236c-0.057-7.79-0.088-15.581-0.011-23.37c0.056-5.542,2.131-10.09,6.714-13.23
			c2.081-1.426,4.489-1.802,6.875-2.219c1.783-0.312,3.576-0.568,5.364-0.847c1.322-0.206,1.784,0.081,2.259,1.423
			c3.23,9.138,6.458,18.277,9.688,27.415c0.095,0.269,0.189,0.54,0.301,0.802c0.32,0.749,0.856,1.189,1.674,1.198
			c0.855,0.009,1.429-0.438,1.733-1.232c0.389-1.014,0.745-2.041,1.106-3.064c2.921-8.276,5.84-16.555,8.759-24.832
			c0.613-1.738,0.927-1.924,2.743-1.625c2.363,0.39,4.747,0.676,7.083,1.194c5.567,1.233,9.088,4.88,10.813,10.361
			c0.488,1.554,0.656,3.271,0.671,4.917c0.069,7.415-0.039,14.833,0.059,22.247c0.049,3.757-1.445,6.811-5.53,7.721
			C94.097,153.692,75.82,153.692,57.542,153.692z"/>
		<path fill-rule="evenodd" clip-rule="evenodd" fill="#C5C9C9" d="M86.934,62.232c0.892,0.199,1.791,0.371,2.675,0.6
			c9.515,2.467,15.738,11.121,15.259,21.205c-0.601,12.617-12.654,21.832-24.54,18.76C66.796,99.301,60.725,83.54,68.344,71.505
			c3.244-5.124,7.929-8.096,13.8-9.055c0.284-0.047,0.561-0.145,0.841-0.218C84.301,62.232,85.618,62.232,86.934,62.232z"/>
		<path fill-rule="evenodd" clip-rule="evenodd" fill="#B4C689" d="M84.953,105.921c0.752,0,1.504-0.027,2.255,0.006
			c1.748,0.076,2.649,1.772,1.755,3.32c-0.469,0.813-0.949,1.633-1.529,2.36c-0.638,0.801-0.758,1.634-0.626,2.625
			c0.345,2.588,0.63,5.183,0.917,7.778c0.036,0.326-0.004,0.69-0.112,1c-0.604,1.726-1.215,3.45-1.885,5.15
			c-0.134,0.339-0.529,0.569-0.804,0.851c-0.25-0.276-0.605-0.509-0.732-0.837c-0.67-1.73-1.292-3.481-1.906-5.233
			c-0.099-0.283-0.128-0.617-0.096-0.917c0.315-2.881,0.662-5.757,0.965-8.639c0.035-0.333-0.062-0.739-0.231-1.026
			c-0.593-1.004-1.241-1.975-1.875-2.954c-0.485-0.75-0.62-1.534-0.194-2.352c0.426-0.82,1.136-1.138,2.01-1.134
			c0.696,0.003,1.392,0.001,2.088,0.001C84.953,105.919,84.953,105.92,84.953,105.921z"/>
	</g>
</g>
</svg>
