<?xml version="1.0" encoding="utf-8"?>
<!-- Generator: Adobe Illustrator 16.0.0, SVG Export Plug-In . SVG Version: 6.00 Build 0)  -->
<!DOCTYPE svg PUBLIC "-//W3C//DTD SVG 1.1//EN" "http://www.w3.org/Graphics/SVG/1.1/DTD/svg11.dtd">
<svg version="1.1" xmlns="http://www.w3.org/2000/svg" xmlns:xlink="http://www.w3.org/1999/xlink" x="0px" y="0px" width="200px"
	 height="200px" viewBox="0 0 200 200" enable-background="new 0 0 200 200" xml:space="preserve">
<g id="圖層_2" display="none">
</g>
<g id="圖層_3" display="none">
</g>
<g id="圖層_4" display="none">
</g>
<g id="圖層_1">
	<g>
		<path fill-rule="evenodd" clip-rule="evenodd" fill="#C5C9C9" d="M156.962,102.71c-0.191,1.448-0.373,2.898-0.578,4.346
			c-2.038,14.355-8.522,26.228-19.279,35.612c-7.613,6.644-16.427,10.794-26.362,12.57c0-4.464,0-8.873,0-13.33
			c12.288-3.191,21.726-10.301,27.962-21.595c5.158-9.342,6.581-19.387,4.484-29.889c-4.061-20.345-22.171-35.154-42.299-34.789
			c-21.178,0.383-37.341,15.841-41.097,34.173c2.984,0,5.943,0,9.147,0c-5.34,9.147-10.551,18.074-15.848,27.147
			c-5.151-9.076-10.218-18.001-15.378-27.093c3.063,0,5.922,0,8.781,0c0.694-2.646,1.261-5.235,2.053-7.751
			c3.96-12.569,11.349-22.545,22.026-29.935c10.055-6.96,21.226-10.208,33.326-9.602c15.47,0.775,28.479,7.16,38.878,18.903
			c7.487,8.456,11.962,18.42,13.611,29.705c0.224,1.527,0.384,3.065,0.574,4.599C156.962,98.09,156.962,100.4,156.962,102.71z"/>
		<path fill-rule="evenodd" clip-rule="evenodd" fill="#B4C689" d="M37.345,132.336c0.529-2.228,1.327-4.305,3.047-5.894
			c2.995-2.766,6.563-3.163,10.289-2.394c7.224,1.492,9.938,9.153,5.308,15.067c-2.429,3.102-5.122,5.989-7.697,8.972
			c-0.301,0.347-0.61,0.687-1.109,1.247c4.003,0,7.746,0,11.579,0c0,1.991,0,3.835,0,5.758c-6.866,0-13.738,0-20.747,0
			c0-1.504-0.037-2.966,0.029-4.424c0.015-0.332,0.341-0.688,0.595-0.965c2.822-3.079,5.747-6.067,8.453-9.249
			c1.41-1.657,2.572-3.581,3.579-5.529c0.441-0.854,0.41-2.099,0.252-3.11c-0.239-1.544-1.237-2.317-2.723-2.52
			c-1.418-0.195-2.613,0.368-3.255,1.775c-0.432,0.949-0.602,2.022-0.927,3.175c-2.173,0-4.424,0-6.674,0
			C37.345,133.611,37.345,132.974,37.345,132.336z"/>
		<path fill-rule="evenodd" clip-rule="evenodd" fill="#B4C689" d="M91.369,134.696c2.213-2.577,4.696-3.543,7.69-2.695
			c3.376,0.957,4.874,3.63,5.016,6.865c0.237,5.357,0.064,10.732,0.064,16.202c-2.182,0-4.373,0-6.727,0c0-0.437,0-0.857,0-1.276
			c0-3.742,0.012-7.485-0.008-11.227c-0.004-0.953-0.073-1.909-0.183-2.855c-0.127-1.104-0.645-1.986-1.741-2.316
			c-1.337-0.401-2.654-0.231-3.769,0.634c-0.274,0.212-0.304,0.862-0.305,1.313c-0.021,4.776-0.013,9.553-0.013,14.331
			c0,0.432,0,0.865,0,1.396c-2.406,0-4.716,0-7.131,0c0-10.313,0-20.634,0-31.037c2.32,0,4.632,0,7.107,0
			C91.369,127.494,91.369,130.958,91.369,134.696z"/>
		<path fill-rule="evenodd" clip-rule="evenodd" fill="#B4C689" d="M59.485,148.593c-0.119-1.447-0.261-2.788-0.319-4.132
			c-0.014-0.317,0.212-0.668,0.392-0.964c3.74-6.139,7.478-12.279,11.26-18.389c0.232-0.374,0.832-0.698,1.271-0.715
			c1.974-0.077,3.952-0.033,6.081-0.033c0,6.344,0,12.562,0,18.898c1.107,0,2.063,0,3.096,0c0,1.805,0,3.492,0,5.315
			c-1,0-1.991,0-3.084,0c0,2.225,0,4.316,0,6.5c-2.299,0-4.492,0-6.844,0c0-2.132,0-4.252,0-6.48
			C67.309,148.593,63.436,148.593,59.485,148.593z M71.214,143.191c0-3.215,0-6.354,0-9.497c-0.078-0.026-0.154-0.052-0.23-0.079
			c-1.858,3.162-3.718,6.323-5.63,9.576C67.457,143.191,69.313,143.191,71.214,143.191z"/>
		<path fill-rule="evenodd" clip-rule="evenodd" fill="#B4C689" d="M94.271,106.605c0-12.445,0-24.805,0-37.243
			c2.107,0,4.15,0,6.334,0c0,10.194,0,20.395,0,30.727c5.681,0,11.221,0,16.828,0c0,2.226,0,4.32,0,6.517
			C109.756,106.605,102.079,106.605,94.271,106.605z"/>
	</g>
</g>
</svg>
