<?xml version="1.0" encoding="utf-8"?>
<!-- Generator: Adobe Illustrator 16.0.0, SVG Export Plug-In . SVG Version: 6.00 Build 0)  -->
<!DOCTYPE svg PUBLIC "-//W3C//DTD SVG 1.1//EN" "http://www.w3.org/Graphics/SVG/1.1/DTD/svg11.dtd">
<svg version="1.1" xmlns="http://www.w3.org/2000/svg" xmlns:xlink="http://www.w3.org/1999/xlink" x="0px" y="0px" width="200px"
	 height="200px" viewBox="0 0 200 200" enable-background="new 0 0 200 200" xml:space="preserve">
<g id="圖層_2" display="none">
</g>
<g id="圖層_3" display="none">
</g>
<g id="圖層_4" display="none">
</g>
<g id="圖層_1">
	<g>
		<path fill-rule="evenodd" clip-rule="evenodd" fill="#B4C689" d="M159.065,83.244c0,10.238,0,20.477,0,30.713
			c-0.07,0.174-0.178,0.34-0.207,0.521c-0.974,6.035-4.179,10.493-9.534,13.391c-2.01,1.085-4.168,1.757-6.505,1.888
			c1.718-10.11-6.533-16.042-13.072-15.881c-6.304,0.155-14.181,5.924-12.494,15.946c-13.19,0-26.366,0-39.56,0
			c1.58-9.085-4.742-15.06-11.096-15.813c-3.538-0.419-6.792,0.414-9.601,2.65c-3.88,3.09-5.43,7.193-4.917,12.213
			c-4.809-1.779-8.286-4.822-10.35-9.322c-0.811-1.765-1.206-3.722-1.792-5.592c0-0.853,0-1.707,0-2.559
			c0.084-0.207,0.199-0.408,0.252-0.622c1.085-4.477,2.117-8.966,3.253-13.43c1.237-4.872,2.201-9.855,3.94-14.547
			c3.169-8.545,9.553-13.181,18.729-13.783c1.962-0.129,3.929-0.181,5.883-0.269c0.5-3.954,2.473-6.104,5.681-6.251
			c1.409-0.064,2.673,0.309,3.811,1.144c1.73,1.27,2.34,3.09,2.451,5.199c0.546,0,1.009,0,1.468,0c19.076,0,38.15,0,57.224,0
			c1.55,0,3.102-0.033,4.652,0.018c6.008,0.199,9.581,3.163,10.84,9.032C158.5,79.66,158.754,81.457,159.065,83.244z
			 M94.072,101.625c3.762,0,7.384,0,11.137,0c0,3.759,0,7.379,0,11.013c3.61,0,7.084,0,10.692,0c0-3.702,0-7.333,0-11.093
			c3.763,0,7.39,0,11.033,0c0-3.639,0-7.141,0-10.787c-3.713,0-7.335,0-11.099,0c0-3.765,0-7.385,0-11.011
			c-3.619,0-7.091,0-10.699,0c0,3.696,0,7.322,0,11.089c-3.757,0-7.381,0-11.065,0C94.072,94.454,94.072,97.925,94.072,101.625z
			 M77.382,75.973c-0.164-0.055-0.272-0.12-0.375-0.12c-4.383-0.003-8.761-0.122-13.135,0.036c-3.577,0.128-6.407,1.872-7.216,5.829
			c-0.403,1.966-1.037,3.885-1.535,5.833c-0.723,2.835-1.418,5.677-2.14,8.563c8.209,0,16.288,0,24.401,0
			C77.382,89.346,77.382,82.66,77.382,75.973z"/>
		<path fill-rule="evenodd" clip-rule="evenodd" fill="#C5C9C9" d="M64.776,137.506c-5.62-0.02-10.208-4.622-10.188-10.219
			c0.026-5.604,4.664-10.218,10.238-10.183c5.6,0.038,10.241,4.689,10.205,10.234C74.996,132.944,70.373,137.528,64.776,137.506z"/>
		<path fill-rule="evenodd" clip-rule="evenodd" fill="#C5C9C9" d="M130.573,137.512c-5.602,0.021-10.205-4.552-10.236-10.174
			c-0.031-5.567,4.574-10.198,10.184-10.236c5.576-0.039,10.195,4.562,10.223,10.183
			C140.771,132.894,136.202,137.486,130.573,137.512z"/>
	</g>
</g>
</svg>
