<?xml version="1.0" encoding="utf-8"?>
<!-- Generator: Adobe Illustrator 16.0.0, SVG Export Plug-In . SVG Version: 6.00 Build 0)  -->
<!DOCTYPE svg PUBLIC "-//W3C//DTD SVG 1.1//EN" "http://www.w3.org/Graphics/SVG/1.1/DTD/svg11.dtd">
<svg version="1.1" xmlns="http://www.w3.org/2000/svg" xmlns:xlink="http://www.w3.org/1999/xlink" x="0px" y="0px" width="200px"
	 height="200px" viewBox="0 0 200 200" enable-background="new 0 0 200 200" xml:space="preserve">
<g id="圖層_2" display="none">
</g>
<g id="圖層_3" display="none">
</g>
<g id="圖層_4" display="none">
</g>
<g id="圖層_1">
	<g>
		<path fill-rule="evenodd" clip-rule="evenodd" d="M42.207,82.328c0.5-2.073,1.267-4.011,2.942-5.44
			c2.848-2.428,6.077-3.024,9.484-1.517c3.503,1.549,5.243,4.441,5.292,8.253c0.062,4.761,0.015,9.524,0.015,14.286
			c0,0.399,0,0.8,0,1.12c1.192,0,2.298-0.103,3.376,0.021c2.042,0.237,3.781,1.171,5.238,2.629
			c4.826,4.832,9.656,9.66,14.486,14.486c2.366,2.365,3.506,5.225,3.5,8.56c-0.006,4.133-0.001,8.265-0.001,12.575
			c0.645,0,1.253-0.013,1.861,0.001c1.676,0.04,2.555,0.867,2.563,2.524c0.022,4.428-0.011,8.859,0.02,13.288
			c0.009,1.225-0.615,1.981-1.563,2.583c-10.787,0-21.575,0-32.362,0c-0.948-0.602-1.572-1.358-1.563-2.583
			c0.03-4.429-0.003-8.857,0.02-13.287c0.008-1.657,0.885-2.485,2.559-2.526c0.611-0.014,1.222-0.001,1.794-0.001
			c0.239-1.369-0.235-2.287-1.082-3.126c-3.775-3.741-7.477-7.556-11.295-11.253c-2.532-2.453-4.74-5.04-5.285-8.675
			C42.207,103.608,42.207,92.969,42.207,82.328z M82.106,137.251c0-4.112-0.052-8.133,0.02-12.151
			c0.042-2.449-0.792-4.422-2.529-6.135c-4.603-4.538-9.153-9.131-13.728-13.697c-0.365-0.364-0.737-0.733-1.154-1.033
			c-2.464-1.78-5.928-0.582-6.787,2.337c-0.552,1.875,0.088,3.392,1.415,4.713c3.48,3.468,6.957,6.938,10.423,10.42
			c1.173,1.18,1.279,2.447,0.339,3.419c-0.931,0.962-2.273,0.889-3.42-0.25c-3.563-3.542-7.139-7.072-10.652-10.663
			c-2.978-3.042-3.683-7.17-1.545-10.65c0.893-1.455,1.044-2.829,1.019-4.37c-0.008-0.59-0.001-1.182-0.001-1.772
			c0-4.617,0.029-9.235-0.012-13.853c-0.029-3.195-2.92-5.293-5.848-4.314c-1.876,0.627-3.002,2.307-3.003,4.563
			c-0.008,9.493,0.021,18.986-0.02,28.479c-0.01,2.367,0.785,4.284,2.463,5.936c3.896,3.836,7.708,7.758,11.624,11.571
			c2.119,2.063,4.011,4.168,3.626,7.449C70.308,137.251,76.131,137.251,82.106,137.251z M86.492,141.813c-8.896,0-17.695,0-26.46,0
			c0,3.193,0,6.307,0,9.393c8.865,0,17.639,0,26.46,0C86.492,148.06,86.492,144.973,86.492,141.813z"/>
		<path fill-rule="evenodd" clip-rule="evenodd" d="M108.484,155.699c-1.237-0.689-1.592-1.759-1.572-3.137
			c0.058-4.096,0.019-8.194,0.022-12.291c0.001-2.237,0.743-2.964,3.013-2.97c0.433-0.001,0.868,0,1.419,0
			c0-1.152-0.01-2.211,0.001-3.271c0.042-3.689,0.007-7.381,0.163-11.065c0.114-2.699,1.466-4.911,3.338-6.793
			c4.792-4.814,9.596-9.615,14.407-14.409c2.27-2.261,4.974-3.219,8.17-2.62c0.136,0.025,0.281,0.003,0.519,0.003
			c0-0.438,0-0.837,0-1.236c0-4.726-0.03-9.45,0.008-14.175c0.048-5.873,4.794-9.914,10.483-8.981
			c3.393,0.556,6.211,3.298,7.032,6.838c0.057,0.248,0.14,0.491,0.21,0.736c0,10.641,0,21.28,0,31.92
			c-0.544,3.635-2.752,6.222-5.284,8.675c-3.844,3.723-7.575,7.562-11.372,11.333c-0.845,0.84-1.257,1.77-0.984,3.045
			c0.42,0,0.82-0.001,1.219,0c2.422,0.005,3.121,0.691,3.122,3.082c0.001,4.061-0.037,8.12,0.021,12.18
			c0.02,1.377-0.335,2.447-1.573,3.136C130.059,155.699,119.271,155.699,108.484,155.699z M133.562,137.25
			c-0.238-2.82,0.983-4.842,2.851-6.667c4.201-4.104,8.313-8.301,12.483-12.438c1.517-1.503,2.375-3.249,2.373-5.412
			c-0.01-9.679,0.005-19.357-0.011-29.037c-0.005-2.708-1.906-4.683-4.423-4.686c-2.518-0.001-4.42,1.974-4.429,4.679
			c-0.021,5.837-0.015,11.673,0.007,17.51c0.001,0.412,0.106,0.91,0.35,1.221c2.675,3.426,2.489,8.55-1.116,12.058
			c-3.417,3.321-6.748,6.731-10.122,10.096c-0.286,0.285-0.595,0.558-0.928,0.782c-0.745,0.5-1.516,0.497-2.287,0.032
			c-0.776-0.469-1.207-1.198-0.989-2.043c0.172-0.669,0.577-1.355,1.064-1.853c3.414-3.481,6.893-6.9,10.316-10.372
			c1.925-1.955,1.964-4.644,0.17-6.434c-1.791-1.788-4.481-1.746-6.437,0.191c-4.854,4.812-9.677,9.654-14.506,14.49
			c-1.243,1.245-2.072,2.732-2.093,4.511c-0.046,4.395-0.013,8.791-0.005,13.186c0,0.058,0.077,0.116,0.127,0.185
			C121.774,137.25,127.599,137.25,133.562,137.25z M137.917,141.813c-8.894,0-17.694,0-26.459,0c0,3.193,0,6.307,0,9.393
			c8.864,0,17.638,0,26.459,0C137.917,148.06,137.917,144.973,137.917,141.813z"/>
		<path fill-rule="evenodd" clip-rule="evenodd" fill="#B4C689" d="M101.169,42.207c2.276,0.432,4.597,0.702,6.821,1.322
			c7.969,2.225,14.228,6.885,18.765,13.778c4.315,6.559,6.067,13.817,5.226,21.619c-0.98,9.091-5.069,16.599-12.165,22.347
			c-7.101,5.753-15.312,8.171-24.4,7.2c-9.091-0.971-16.587-5.099-22.322-12.206c-5.713-7.082-8.121-15.259-7.16-24.305
			c0.974-9.174,5.167-16.693,12.346-22.479c5.226-4.213,11.231-6.569,17.933-7.125c0.178-0.015,0.35-0.099,0.524-0.151
			C98.214,42.207,99.692,42.207,101.169,42.207z M99.211,46.648c-15.698-0.274-28.735,12.506-29.065,28.495
			c-0.326,15.721,12.538,28.842,28.548,29.122c15.699,0.274,28.736-12.507,29.067-28.495
			C128.085,60.05,115.221,46.927,99.211,46.648z"/>
		<path fill-rule="evenodd" clip-rule="evenodd" fill="#B4C689" d="M98.898,99.836C84.647,99.784,73.465,87.544,74.703,73.38
			c0.276-3.167,1.144-6.149,2.546-8.988c0.693-1.402,1.842-1.928,3.047-1.386c1.203,0.54,1.651,1.775,0.974,3.179
			c-1.573,3.254-2.394,6.654-2.231,10.272c0.442,9.856,8.143,17.851,18.166,18.872c9.499,0.967,18.663-5.514,21.038-14.878
			c2.765-10.904-3.793-21.79-14.735-24.397c-2.646-0.632-5.335-0.725-8.028-0.23c-0.47,0.086-0.952,0.146-1.429,0.146
			c-1.146,0.002-2.02-0.734-2.185-1.79c-0.175-1.116,0.415-2.224,1.594-2.43c1.918-0.337,3.878-0.665,5.815-0.632
			c15.066,0.26,26.135,13.596,23.675,28.436C121.016,91.211,110.735,99.88,98.898,99.836z"/>
		<path fill-rule="evenodd" clip-rule="evenodd" fill="#B4C689" d="M96.737,86.55c-1.424-1.128-2.696-2.006-3.807-3.055
			c-1.009-0.955-0.966-2.289-0.108-3.161c0.91-0.924,2.14-0.869,3.256,0.102c0.58,0.504,1.168,1.024,1.832,1.397
			c0.85,0.478,1.844,0.412,2.433-0.338c0.441-0.562,0.703-1.449,0.655-2.165c-0.065-0.972-0.904-1.432-1.848-1.635
			c-1.072-0.23-2.216-0.343-3.184-0.807c-2.415-1.161-3.614-3.239-3.633-5.879c-0.018-2.563,1.176-4.569,3.452-5.764
			c0.807-0.423,1.03-0.886,0.961-1.697c-0.046-0.548-0.038-1.114,0.043-1.657c0.167-1.146,1.135-1.961,2.211-1.934
			c1.047,0.027,1.919,0.814,2.124,1.918c0.319,1.725,1.172,3.148,2.523,4.227c0.795,0.635,1.532,1.324,1.418,2.464
			c-0.162,1.631-1.885,2.491-3.297,1.65c-0.474-0.281-0.889-0.66-1.358-0.949c-0.929-0.574-1.891-0.66-2.786,0.042
			c-0.723,0.567-1.035,1.334-0.772,2.259c0.315,1.11,1.127,1.589,2.218,1.673c2.916,0.229,5.05,1.594,6.083,4.376
			c1.199,3.224-0.138,6.606-3.205,8.161c-0.647,0.329-0.851,0.686-0.787,1.347c0.047,0.475,0.026,0.959,0.003,1.439
			c-0.065,1.427-0.997,2.41-2.242,2.389c-1.247-0.021-2.135-1.006-2.181-2.451C96.718,87.732,96.737,86.959,96.737,86.55z"/>
		<path fill-rule="evenodd" clip-rule="evenodd" fill="#B4C689" d="M85.691,59.923c-1.161,0.023-2.213-0.994-2.237-2.161
			c-0.024-1.16,0.993-2.213,2.161-2.236c1.16-0.024,2.212,0.993,2.237,2.16C87.876,58.846,86.857,59.899,85.691,59.923z"/>
	</g>
</g>
</svg>
