<?xml version="1.0" encoding="utf-8"?>
<!-- Generator: Adobe Illustrator 16.0.0, SVG Export Plug-In . SVG Version: 6.00 Build 0)  -->
<!DOCTYPE svg PUBLIC "-//W3C//DTD SVG 1.1//EN" "http://www.w3.org/Graphics/SVG/1.1/DTD/svg11.dtd">
<svg version="1.1" xmlns="http://www.w3.org/2000/svg" xmlns:xlink="http://www.w3.org/1999/xlink" x="0px" y="0px" width="200px"
	 height="200px" viewBox="0 0 200 200" enable-background="new 0 0 200 200" xml:space="preserve">
<g id="圖層_2" display="none">
</g>
<g id="圖層_3" display="none">
</g>
<g id="圖層_4" display="none">
</g>
<g id="圖層_1">
	<g>
		<g>
			<path fill-rule="evenodd" clip-rule="evenodd" fill="#B4C689" d="M166.281,129.351c-0.49,0.556-0.917,1.19-1.483,1.65
				c-1.998,1.618-4.045,3.177-6.142,4.81c1.024,2.557,2.038,5.079,3.047,7.603c0.753,1.883,0.503,3.022-0.775,3.545
				c-1.288,0.526-2.224-0.109-2.994-2.029c-0.854-2.122-1.709-4.243-2.626-6.519c-2.396,1.865-4.706,3.638-6.973,5.464
				c-0.24,0.194-0.313,0.694-0.323,1.057c-0.04,1.346,0.007,2.694-0.028,4.04c-0.032,1.332-0.847,2.207-1.992,2.216
				c-1.124,0.007-1.987-0.873-2.043-2.19c-0.05-1.227,0.039-2.46-0.048-3.682c-0.024-0.35-0.375-0.843-0.698-0.975
				c-1.169-0.478-2.397-0.811-3.59-1.234c-1.413-0.501-2.012-1.549-1.604-2.729c0.378-1.094,1.491-1.53,2.864-1.122
				c0.153,0.045,0.305,0.087,0.458,0.135c1.429,0.447,2.953,1.425,4.263,1.193c1.317-0.233,2.425-1.665,3.616-2.582
				c1.12-0.861,2.23-1.734,3.488-2.715c-2.275-1.369-4.4-2.646-6.524-3.925c-0.44-0.266-0.897-0.511-1.304-0.823
				c-0.956-0.732-1.165-1.795-0.576-2.723c0.542-0.855,1.611-1.181,2.618-0.683c0.955,0.474,1.856,1.059,2.773,1.606
				c1.905,1.137,3.814,2.262,5.697,3.434c0.557,0.348,0.943,0.335,1.468-0.088c1.787-1.443,3.617-2.833,5.436-4.238
				c1.771-1.368,2.577-1.302,3.996,0.317C166.281,128.559,166.281,128.955,166.281,129.351z"/>
			<path fill-rule="evenodd" clip-rule="evenodd" fill="#B4C689" d="M44.474,96.072c0.121-0.244,0.22-0.501,0.363-0.73
				c0.528-0.845,1.319-1.144,2.25-0.887c0.942,0.26,1.393,0.958,1.454,1.938c0.239,3.786,0.493,7.571,0.742,11.356
				c0.1,1.53-0.554,2.485-1.782,2.591c-1.211,0.105-2.065-0.705-2.254-2.231c-0.281-2.267-0.518-4.538-0.773-6.808
				C44.474,99.559,44.474,97.815,44.474,96.072z"/>
			<path fill-rule="evenodd" clip-rule="evenodd" fill="#B4C689" d="M105.853,37.597c1.339,0.814,1.768,1.574,1.413,2.649
				c-0.39,1.181-1.351,1.4-2.46,1.431c-1.7,0.046-3.399,0.179-5.1,0.246c-1.44,0.057-2.343-0.659-2.413-1.864
				c-0.067-1.134,0.72-1.965,2.067-2.158c0.814-0.117,1.633-0.202,2.449-0.304C103.157,37.597,104.504,37.597,105.853,37.597z"/>
			<path fill-rule="evenodd" clip-rule="evenodd" d="M105.39,53.821c25.622,0.019,46.743,21.025,46.702,46.446
				c-0.042,25.872-20.99,46.894-46.721,46.886c-25.764-0.007-46.625-20.924-46.679-46.668
				C58.638,75.175,79.019,54.041,105.39,53.821z M85.413,62.919c1.802,3.13,1.806,6.456,1.618,9.798
				c-0.125,2.194-0.853,4.214-2.349,5.837c-2.012,2.183-4.129,4.271-6.216,6.387c-0.719,0.728-1.034,1.495-0.792,2.562
				c0.834,3.684-0.596,6.332-4.122,7.741c-2.755,1.102-5.523,2.172-8.284,3.259c-2.554,1.002-2.613,1.007-2.43,3.736
				c0.157,2.349,0.472,4.687,0.73,7.149c0.73-0.256,1.208-0.419,1.683-0.592c2.155-0.784,4.274-1.693,6.473-2.333
				c3.643-1.061,7.037,1.456,7.237,5.243c0.05,0.949,0.012,1.901,0.02,2.852c0.027,3.223,1.492,5.5,4.468,6.783
				c1.635,0.704,3.257,1.445,4.915,2.096c3.137,1.229,5.714,3.201,7.911,5.719c2.723,3.121,3.924,6.724,3.452,10.854
				c-0.096,0.848-0.265,1.688-0.399,2.528c23.837,3.744,46.215-14.104,48.363-37.725c-1.861,1.475-3.842,2.212-6.135,1.641
				c-2.339-0.581-3.62-2.365-4.818-4.628c-0.245,1.041-0.429,1.713-0.558,2.395c-0.883,4.694-2.437,9.256-2.607,14.095
				c-0.055,1.518-0.448,3.061-0.912,4.521c-1.115,3.511-3.093,6.381-6.785,7.55c-4.734,1.498-7.75,0.366-9.25-3.647
				c-0.234-0.628-0.457-1.281-0.536-1.939c-0.33-2.703-0.601-5.413-0.896-8.146c-1.155-0.468-2.511-0.842-3.676-1.537
				c-1.172-0.699-2.162-1.711-3.221-2.596c-2-1.67-3.942-3.416-6.01-4.998c-1.567-1.199-2.976-2.481-3.871-4.263
				c-0.764-1.521-1.524-3.042-2.29-4.561c-0.737-1.464-0.966-3.024-0.711-4.622c0.779-4.889,2.509-9.479,4.736-13.864
				c1.339-2.636,4.739-2.768,6.494-0.379c0.677,0.921,1.227,1.938,1.814,2.923c0.438,0.734,0.863,1.468,1.906,1.268
				c1.005-0.192,1.065-1.017,1.217-1.809c0.683-3.585,2.639-6.224,5.959-7.783c1.251-0.588,2.521-1.187,3.845-1.563
				c1.797-0.51,2.295-1.738,2.309-3.39c0.021-2.695-0.631-5.254-1.595-7.74c-0.13-0.334-0.572-0.631-0.937-0.777
				c-6.875-2.735-13.992-3.611-21.327-2.672C94.803,58.938,90.04,60.441,85.413,62.919z M103.623,82.599
				c-0.124-0.02-0.247-0.04-0.37-0.061c-1.116,3.238-2.234,6.474-3.35,9.712c-0.78,2.271-0.593,4.422,0.744,6.463
				c0.408,0.625,0.706,1.328,1.018,2.011c0.697,1.521,1.839,2.608,3.157,3.62c2.125,1.637,4.237,3.321,6.154,5.193
				c1.773,1.733,3.673,2.929,6.185,3.156c1.663,0.151,2.357,0.989,2.399,2.668c0.024,0.949-0.151,1.91-0.061,2.849
				c0.22,2.275,0.416,4.567,0.863,6.806c0.359,1.793,1.141,2.156,2.94,1.876c1.817-0.284,3.36-1.095,4.249-2.723
				c0.674-1.234,1.3-2.565,1.579-3.927c0.402-1.967,0.314-4.031,0.712-5.999c1.013-5,2.175-9.969,3.286-14.949
				c0.333-1.494,1.215-2.496,2.763-2.731c1.551-0.235,2.676,0.494,3.465,1.788c0.599,0.979,1.158,1.983,1.775,2.951
				c0.891,1.401,2.079,1.666,3.428,0.741c1.013-0.694,1.999-1.43,2.943-2.213c0.25-0.206,0.448-0.667,0.415-0.985
				c-0.23-2.239-0.381-4.499-0.828-6.698c-1.98-9.763-6.85-17.854-14.444-24.288c-1.638-1.387-3.455-2.562-5.19-3.835
				c-0.09,0.083-0.182,0.163-0.272,0.246c0.068,0.46,0.16,0.919,0.2,1.38c0.125,1.455,0.382,2.919,0.317,4.366
				c-0.141,3.09-1.425,5.473-4.573,6.518c-0.902,0.3-1.758,0.724-2.657,1.03c-2.854,0.973-4.478,2.921-5.01,5.902
				c-0.467,2.611-2.044,4.158-4.359,4.557c-2.478,0.426-4.49-0.529-5.905-2.818C104.662,84.343,104.146,83.469,103.623,82.599z
				 M95.235,141.707c1.091-3.528,0.593-6.714-1.721-9.531c-1.834-2.235-4.076-3.956-6.805-5.021c-1.657-0.647-3.282-1.38-4.909-2.1
				c-3.85-1.701-6.176-4.612-6.759-8.793c-0.191-1.362-0.067-2.768-0.124-4.15c-0.055-1.343-0.886-2.138-2.077-1.748
				c-2.688,0.88-5.325,1.922-7.969,2.893C68.695,126.622,80.942,138.555,95.235,141.707z M63.131,95
				c3.206-1.27,6.112-2.405,9.006-3.57c1.565-0.631,1.969-1.396,1.582-3.076c-0.568-2.46,0.108-4.522,1.867-6.279
				c1.738-1.734,3.467-3.479,5.215-5.205c1.099-1.086,2.026-2.334,2.113-3.88c0.107-1.922-0.012-3.865-0.163-5.789
				c-0.057-0.733-0.473-1.438-0.771-2.284C71.361,72.302,65.124,82.15,63.131,95z"/>
			<path fill-rule="evenodd" clip-rule="evenodd" fill="#B4C689" d="M107.927,159.284c-0.236,0-0.475,0.012-0.711-0.002
				c-1.232-0.067-2.073-0.864-2.097-1.979c-0.024-1.139,0.735-1.921,2.011-2.05c2.397-0.242,4.801-0.434,7.193-0.728
				c1.369-0.168,2.713-0.521,4.077-0.74c1.406-0.228,2.392,0.398,2.609,1.584c0.2,1.1-0.473,2.104-1.827,2.341
				c-3.729,0.65-7.478,1.202-11.218,1.793C107.952,159.43,107.94,159.357,107.927,159.284z"/>
			<path fill-rule="evenodd" clip-rule="evenodd" fill="#B4C689" d="M54.243,73.25c-0.089,0.295-0.199,0.713-0.344,1.119
				c-1.218,3.417-2.468,6.825-3.651,10.254c-0.322,0.935-0.755,1.649-1.79,1.823c-1.359,0.229-2.665-1.073-2.211-2.452
				c1.283-3.895,2.688-7.749,4.124-11.59c0.362-0.968,1.223-1.455,2.318-1.171C53.637,71.48,54.133,72.142,54.243,73.25z"/>
			<path fill-rule="evenodd" clip-rule="evenodd" fill="#B4C689" d="M51.076,117.941c0.283,0.264,1,0.675,1.334,1.293
				c1.836,3.403,3.583,6.851,5.347,10.293c0.566,1.106,0.269,2.224-0.692,2.801c-0.95,0.568-2.181,0.33-2.768-0.765
				c-1.901-3.545-3.769-7.112-5.527-10.73C48.053,119.359,49.087,117.891,51.076,117.941z"/>
			<path fill-rule="evenodd" clip-rule="evenodd" fill="#B4C689" d="M75.227,147.551c-0.534,0.69-0.85,1.489-1.387,1.685
				c-0.638,0.233-1.617,0.19-2.18-0.163c-1.672-1.045-3.255-2.245-4.787-3.493c-1.499-1.222-2.913-2.554-4.325-3.881
				c-1.122-1.056-1.236-2.219-0.398-3.125c0.847-0.917,1.975-0.836,3.152,0.14c2.827,2.345,5.693,4.643,8.503,7.006
				C74.337,146.169,74.684,146.838,75.227,147.551z"/>
			<path fill-rule="evenodd" clip-rule="evenodd" fill="#B4C689" d="M89.49,42.769c0.001,0.565-0.5,1.16-1.336,1.525
				c-3.58,1.563-7.158,3.133-10.741,4.689c-1.072,0.466-2.16,0.122-2.668-0.807c-0.526-0.962-0.333-2.179,0.729-2.669
				c3.794-1.753,7.619-3.451,11.5-5.002C88.284,39.981,89.471,41.042,89.49,42.769z"/>
			<path fill-rule="evenodd" clip-rule="evenodd" fill="#B4C689" d="M56.235,62.972c0.394-0.722,0.559-1.233,0.889-1.595
				c2.617-2.846,5.23-5.696,7.919-8.473c1.054-1.088,2.306-1.036,3.132-0.101c0.797,0.904,0.641,1.98-0.364,3.045
				c-2.546,2.697-5.07,5.416-7.603,8.124c-0.69,0.738-1.529,1.325-2.492,0.725C57.099,64.312,56.714,63.552,56.235,62.972z"/>
			<path fill-rule="evenodd" clip-rule="evenodd" fill="#B4C689" d="M94.603,158.392c-1.495-0.345-3.438-0.718-5.332-1.256
				c-2.048-0.582-4.064-1.284-6.069-2c-1.365-0.487-1.918-1.527-1.545-2.652c0.39-1.169,1.496-1.567,2.946-1.149
				c3.56,1.026,7.129,2.023,10.699,3.02c1.252,0.349,1.896,1.146,1.785,2.283C96.988,157.666,96.17,158.37,94.603,158.392z"/>
			<path fill-rule="evenodd" clip-rule="evenodd" fill="#B4C689" d="M130.214,153.934c-0.545-0.538-1.242-0.992-1.597-1.636
				c-0.448-0.814-0.12-1.72,0.665-2.177c1.913-1.116,3.863-2.172,5.854-3.141c0.92-0.448,1.82-0.097,2.371,0.788
				c0.513,0.824,0.546,1.873-0.257,2.367c-2.078,1.274-4.281,2.344-6.437,3.489c-0.1,0.053-0.232,0.042-0.35,0.062
				C130.38,153.768,130.297,153.851,130.214,153.934z"/>
			<path fill-rule="evenodd" clip-rule="evenodd" fill="#FFFFFF" d="M103.623,82.599c0.523,0.87,1.04,1.744,1.573,2.606
				c1.416,2.289,3.428,3.244,5.905,2.818c2.315-0.398,3.892-1.945,4.359-4.557c0.532-2.981,2.156-4.93,5.01-5.902
				c0.899-0.307,1.755-0.73,2.657-1.03c3.147-1.045,4.432-3.428,4.573-6.518c0.065-1.447-0.192-2.911-0.317-4.366
				c-0.04-0.461-0.132-0.92-0.2-1.38c0.09-0.083,0.182-0.163,0.272-0.246c1.735,1.273,3.552,2.448,5.19,3.835
				c7.594,6.434,12.463,14.525,14.444,24.288c0.446,2.199,0.597,4.459,0.828,6.698c0.033,0.318-0.166,0.779-0.415,0.985
				c-0.944,0.783-1.931,1.519-2.943,2.213c-1.349,0.925-2.537,0.66-3.428-0.741c-0.617-0.968-1.176-1.972-1.775-2.951
				c-0.79-1.294-1.914-2.023-3.465-1.788c-1.548,0.235-2.43,1.237-2.763,2.731c-1.111,4.979-2.273,9.949-3.286,14.949
				c-0.398,1.967-0.31,4.032-0.712,5.999c-0.279,1.362-0.905,2.693-1.579,3.927c-0.889,1.628-2.432,2.439-4.249,2.723
				c-1.799,0.28-2.581-0.083-2.94-1.876c-0.448-2.238-0.644-4.53-0.863-6.806c-0.09-0.939,0.085-1.9,0.061-2.849
				c-0.042-1.679-0.737-2.517-2.399-2.668c-2.511-0.228-4.412-1.423-6.185-3.156c-1.917-1.872-4.029-3.557-6.154-5.193
				c-1.318-1.012-2.459-2.1-3.157-3.62c-0.312-0.683-0.609-1.385-1.018-2.011c-1.336-2.041-1.524-4.191-0.744-6.463
				c1.116-3.238,2.233-6.474,3.35-9.712C103.375,82.559,103.499,82.579,103.623,82.599z"/>
			<path fill-rule="evenodd" clip-rule="evenodd" fill="#FFFFFF" d="M95.235,141.707c-14.293-3.152-26.54-15.085-30.364-28.451
				c2.644-0.971,5.281-2.013,7.969-2.893c1.191-0.39,2.022,0.405,2.077,1.748c0.057,1.383-0.067,2.788,0.124,4.15
				c0.583,4.181,2.909,7.092,6.759,8.793c1.627,0.72,3.252,1.453,4.909,2.1c2.729,1.065,4.971,2.786,6.805,5.021
				C95.828,134.993,96.326,138.179,95.235,141.707z"/>
			<path fill-rule="evenodd" clip-rule="evenodd" fill="#FFFFFF" d="M63.131,95c1.992-12.85,8.23-22.698,18.85-30.084
				c0.297,0.846,0.714,1.551,0.771,2.284c0.151,1.924,0.27,3.867,0.163,5.789c-0.086,1.546-1.014,2.794-2.113,3.88
				c-1.748,1.727-3.477,3.471-5.215,5.205c-1.759,1.757-2.435,3.819-1.867,6.279c0.387,1.681-0.016,2.445-1.582,3.076
				C69.243,92.595,66.337,93.73,63.131,95z"/>
		</g>
	</g>
</g>
</svg>
