<?xml version="1.0" encoding="utf-8"?>
<!-- Generator: Adobe Illustrator 16.0.0, SVG Export Plug-In . SVG Version: 6.00 Build 0)  -->
<!DOCTYPE svg PUBLIC "-//W3C//DTD SVG 1.1//EN" "http://www.w3.org/Graphics/SVG/1.1/DTD/svg11.dtd">
<svg version="1.1" xmlns="http://www.w3.org/2000/svg" xmlns:xlink="http://www.w3.org/1999/xlink" x="0px" y="0px" width="200px"
	 height="200px" viewBox="0 0 200 200" enable-background="new 0 0 200 200" xml:space="preserve">
<g id="圖層_2" display="none">
</g>
<g id="圖層_3" display="none">
</g>
<g id="圖層_4" display="none">
</g>
<g id="圖層_1">
	<path fill-rule="evenodd" clip-rule="evenodd" fill="#B4C689" d="M36.22,144.838c0.393-1.729,0.636-3.506,1.204-5.173
		c2.314-6.794,7.094-11.634,12.827-15.617c9.287-6.451,19.77-9.867,30.78-11.89c0.643-0.119,1.284-0.242,2.139-0.403
		c-12.854-8.194-19.291-19.666-18.15-34.813c0.742-9.852,5.203-18.072,12.815-24.379c15.564-12.894,38.305-10.501,50.935,5.009
		c13.517,16.597,9.871,42.446-10.16,54.052c4.69,1.098,9.324,2.184,14.219,3.332c-11.352,8.104-14.796,18.404-10.07,31.334
		c-0.33,0.023-0.648,0.065-0.966,0.065c-28.357,0.003-56.715,0.003-85.073,0.002c-0.167,0-0.333-0.015-0.498-0.021
		C36.22,145.836,36.22,145.337,36.22,144.838z"/>
	<path fill-rule="evenodd" clip-rule="evenodd" d="M163.956,138.352c-0.155,0.634-0.32,1.267-0.468,1.903
		c-2.041,8.828-9.68,14.912-18.645,14.846c-8.961-0.066-16.567-6.272-18.48-15.078c-2.229-10.257,4.623-20.521,15.046-22.539
		c10.407-2.015,20.625,5.119,22.286,15.557c0.057,0.361,0.172,0.713,0.26,1.069C163.956,135.523,163.956,136.938,163.956,138.352z
		 M141.527,123.755c0,3.068,0,5.991,0,9.037c-3.055,0-5.948,0-8.874,0c0,2.298,0,4.466,0,6.797c3.024,0,5.948,0,8.981,0
		c0,3.059,0,5.955,0,8.893c2.257,0,4.397,0,6.699,0c0-2.993,0-5.919,0-9.007c3.084,0,6.011,0,8.95,0c0-2.306,0-4.445,0-6.753
		c-3.013,0-5.938,0-9.024,0c0-3.09,0-6.013,0-8.967C145.987,123.755,143.882,123.755,141.527,123.755z"/>
</g>
</svg>
