<?xml version="1.0" encoding="utf-8"?>
<!-- Generator: Adobe Illustrator 16.0.0, SVG Export Plug-In . SVG Version: 6.00 Build 0)  -->
<!DOCTYPE svg PUBLIC "-//W3C//DTD SVG 1.1//EN" "http://www.w3.org/Graphics/SVG/1.1/DTD/svg11.dtd">
<svg version="1.1" id="Capa_1" xmlns="http://www.w3.org/2000/svg" xmlns:xlink="http://www.w3.org/1999/xlink" x="0px" y="0px"
	 width="800px" height="800px" viewBox="0 0 800 800" enable-background="new 0 0 800 800" xml:space="preserve">
<g>
	<rect y="-0.001" fill="#00C300" width="800" height="800"/>
	<g>
		<path fill="#FFFFFF" d="M690.357,385.496c1.346-7.083,2.011-13.043,2.314-17.718c0.505-7.715-0.068-19.169-0.273-22.756
			c-7.106-123.593-135.336-222.063-292.481-222.063c-161.706,0-292.792,104.267-292.792,232.887
			c0,118.221,110.746,215.864,254.222,230.883c8.771,0.919,15.099,8.837,14.124,17.602l-6.107,54.983
			c-1.389,12.481,11.52,21.563,22.83,16.104C513.41,616.915,585.895,556.731,629.18,504.589
			c7.877-9.487,33.563-45.474,38.797-54.925C679.092,429.602,686.754,408.055,690.357,385.496z"/>
		<path fill="#00C300" d="M238.918,403.023v-98.097c0-8.271-6.705-14.977-14.978-14.977l0,0c-8.271,0-14.979,6.703-14.979,14.977
			v113.073c0,8.271,6.706,14.978,14.979,14.978h59.905c8.272,0,14.979-6.705,14.979-14.978l0,0c0-8.271-6.706-14.979-14.979-14.979
			L238.918,403.023L238.918,403.023z"/>
		<path fill="#00C300" d="M331.303,432.977h-6.548c-6.464,0-11.703-5.239-11.703-11.703V301.653c0-6.464,5.239-11.702,11.703-11.702
			h6.548c6.463,0,11.703,5.238,11.703,11.702v119.621C343.006,427.738,337.766,432.977,331.303,432.977z"/>
		<path fill="#00C300" d="M452.334,304.926v69.077c0,0-59.813-78.018-60.727-79.041c-2.857-3.207-7.068-5.18-11.743-5.003
			c-8.146,0.31-14.396,7.43-14.396,15.581v112.456c0,8.271,6.706,14.979,14.979,14.979l0,0c8.271,0,14.978-6.705,14.978-14.979
			V349.34c0,0,60.722,78.693,61.613,79.542c2.647,2.506,6.207,4.058,10.134,4.093c8.317,0.076,15.116-7.281,15.116-15.599v-112.45
			c0-8.271-6.706-14.977-14.979-14.977l0,0C459.039,289.95,452.334,296.655,452.334,304.926z"/>
		<path fill="#00C300" d="M594.612,304.926L594.612,304.926c0-8.271-6.706-14.977-14.979-14.977h-59.906
			c-8.271,0-14.979,6.703-14.979,14.977v113.073c0,8.271,6.706,14.978,14.979,14.978h59.906c8.271,0,14.979-6.705,14.979-14.978l0,0
			c0-8.271-6.706-14.979-14.979-14.979h-44.93v-26.582h44.93c8.271,0,14.979-6.706,14.979-14.978l0,0
			c0-8.271-6.706-14.979-14.979-14.979h-44.93v-26.583h44.93C587.906,319.904,594.612,313.197,594.612,304.926z"/>
	</g>
</g>
</svg>
