<?xml version="1.0" encoding="utf-8"?>
<!-- Generator: Adobe Illustrator 16.0.0, SVG Export Plug-In . SVG Version: 6.00 Build 0)  -->
<!DOCTYPE svg PUBLIC "-//W3C//DTD SVG 1.1//EN" "http://www.w3.org/Graphics/SVG/1.1/DTD/svg11.dtd">
<svg version="1.1" xmlns="http://www.w3.org/2000/svg" xmlns:xlink="http://www.w3.org/1999/xlink" x="0px" y="0px" width="200px"
	 height="200px" viewBox="0 0 200 200" enable-background="new 0 0 200 200" xml:space="preserve">
<g id="圖層_2" display="none">
</g>
<g id="圖層_3" display="none">
</g>
<g id="圖層_4" display="none">
</g>
<g id="圖層_1">
	<g>
		<path fill-rule="evenodd" clip-rule="evenodd" fill="#B4C689" d="M182.335,113.22c-1.023,3.266-3.49,4.941-6.438,6.355
			c-19.178,9.197-38.313,18.477-57.449,27.76c-10.008,4.854-20.174,5.312-30.211,0.486c-7.675-3.689-15.646-4.772-23.977-4.342
			c-0.188,0.008-0.372,0.055-0.736,0.11c0,1.066,0,2.115,0,3.164c0,2.905,0.02,5.81-0.006,8.715
			c-0.02,1.886-0.882,2.856-2.705,2.865c-8.183,0.034-16.361,0.006-24.546,0.018c-1.344,0.002-2.118-0.761-2.703-1.838
			c0-22.276,0-44.553,0-66.83c0.615-1.523,1.825-1.961,3.362-1.958c7.751,0.022,15.495,0.002,23.241,0.015
			c2.542,0.005,3.349,0.854,3.357,3.431c0.011,2.035,0.015,4.068,0.025,6.098c0,0.093,0.052,0.183,0.148,0.502
			c0.584,0,1.241-0.003,1.896,0c5.026,0.021,10.111-0.369,14.983,1.2c2.885,0.924,5.833,1.894,8.44,3.391
			c5.272,3.031,10.618,3.676,16.466,2.054c6.512-1.805,13.081-3.491,19.702-4.847c5.131-1.051,9.783,0.615,13.691,4.058
			c1.02,0.898,1.789,1.039,3.032,0.588c5.497-1.992,11.02-3.907,16.56-5.784c9.572-3.238,19.139,0.883,23.063,9.886
			c0.289,0.657,0.537,1.331,0.805,1.996C182.335,111.28,182.335,112.252,182.335,113.22z M105.438,127.61
			c11.514-4.637,22.834-9.199,34.143-13.752c-2.531-7.621-8.478-10.875-16.041-8.931c-6.085,1.564-12.182,3.088-18.265,4.651
			c-4.525,1.165-9.037,1.144-13.425-0.466c-2.303-0.841-4.487-2.028-6.674-3.156c-6.828-3.521-14.155-3.353-21.54-3.14
			c0,11.938,0,23.768,0,35.564c0.201,0.055,0.296,0.097,0.386,0.097c1.213,0.009,2.427,0.068,3.634,0.006
			c7.806-0.402,15.144,1.271,22.192,4.636c8.971,4.284,17.899,3.935,26.817-0.463c12.223-6.027,24.531-11.895,36.801-17.831
			c7.265-3.514,14.533-7.027,21.798-10.551c1.894-0.92,2.416-2.015,1.821-3.681c-1.742-4.881-7.316-8.655-12.505-8.193
			c-2.183,0.195-4.363,0.803-6.458,1.487c-4.992,1.626-9.936,3.411-15.005,5.17c0.638,1.553,1.224,2.974,1.809,4.393
			c0.98,2.386,0.545,3.437-1.843,4.396c-11.474,4.625-22.951,9.243-34.429,13.86c-0.428,0.173-0.867,0.318-1.368,0.503
			C106.649,130.627,106.077,129.2,105.438,127.61z M58.468,153.301c0-20.228,0-40.3,0-60.433c-6.637,0-13.196,0-19.809,0
			c0,20.191,0,40.295,0,60.433C45.302,153.301,51.828,153.301,58.468,153.301z"/>
		<path fill-rule="evenodd" clip-rule="evenodd" fill="#FBB03B" d="M107.928,40.786c14.639-0.03,26.566,11.835,26.684,26.547
			c0.116,14.521-11.923,26.628-26.56,26.705c-14.643,0.077-26.776-12.006-26.758-26.647C81.314,52.744,93.255,40.814,107.928,40.786
			z M129.577,67.463c0.081-11.865-9.601-21.618-21.518-21.681c-11.928-0.062-21.56,9.462-21.717,21.474
			c-0.154,11.873,9.64,21.766,21.58,21.796C119.79,89.082,129.496,79.404,129.577,67.463z"/>
		<path fill-rule="evenodd" clip-rule="evenodd" fill="#7E9DA8" d="M53.119,137.483c-0.02,2.562-2.067,4.555-4.643,4.523
			c-2.545-0.031-4.531-2.105-4.479-4.682c0.048-2.504,2.043-4.449,4.567-4.444C51.135,132.881,53.14,134.904,53.119,137.483z"/>
		<path fill-rule="evenodd" clip-rule="evenodd" fill="#FBB03B" d="M110.678,79.106c0,1.021,0,2.075,0,3.223
			c-1.252,0-2.386,0-3.509,0c-0.061-0.111-0.135-0.188-0.14-0.269c-0.055-0.916,0.223-2.078-0.235-2.673
			c-0.441-0.569-1.682-0.458-2.506-0.802c-1.759-0.733-3.477-1.565-5.362-2.424c0.592-1.067,1.003-1.81,1.478-2.672
			c1.959,1.5,3.987,2.604,6.568,2.844c0-2.471,0.028-4.832-0.034-7.188c-0.011-0.287-0.456-0.672-0.783-0.817
			c-0.659-0.289-1.387-0.42-2.067-0.657c-2.794-0.976-4.086-2.459-4.142-4.96c-0.063-2.691,1.044-4.812,3.518-6.014
			c1.07-0.517,2.262-0.782,3.543-1.213c0-0.935,0-1.932,0-3.015c1.224,0,2.317,0,3.4,0c0.071,0.085,0.188,0.169,0.178,0.231
			c-0.462,2.423,0.616,3.674,2.958,4.191c0.792,0.174,1.477,0.843,2.282,1.329c-0.471,0.837-0.87,1.541-1.254,2.231
			c-1.25-0.648-2.453-1.271-3.912-2.028c0,2.722-0.028,5.08,0.034,7.434c0.008,0.295,0.437,0.677,0.757,0.85
			c0.55,0.291,1.184,0.413,1.759,0.665c2.491,1.102,3.711,2.917,3.655,5.391c-0.058,2.701-1.447,4.665-4.012,5.636
			C112.176,78.655,111.479,78.85,110.678,79.106z M106.854,65.417c0-2.323,0-4.639,0-6.969c-2.688,0.357-3.86,1.453-3.871,3.524
			C102.971,63.939,104.189,65.03,106.854,65.417z M110.718,76.224c2.187-0.569,3.155-1.73,3.011-3.443
			c-0.128-1.547-1.274-2.634-3.011-2.86C110.718,71.981,110.718,74.041,110.718,76.224z"/>
	</g>
</g>
</svg>
