<?xml version="1.0" encoding="utf-8"?>
<!-- Generator: Adobe Illustrator 16.0.0, SVG Export Plug-In . SVG Version: 6.00 Build 0)  -->
<!DOCTYPE svg PUBLIC "-//W3C//DTD SVG 1.1//EN" "http://www.w3.org/Graphics/SVG/1.1/DTD/svg11.dtd">
<svg version="1.1" xmlns="http://www.w3.org/2000/svg" xmlns:xlink="http://www.w3.org/1999/xlink" x="0px" y="0px" width="200px"
	 height="200px" viewBox="0 0 200 200" enable-background="new 0 0 200 200" xml:space="preserve">
<g id="圖層_2" display="none">
</g>
<g id="圖層_3" display="none">
</g>
<g id="圖層_4" display="none">
</g>
<g id="圖層_1">
	<g>
		<path fill-rule="evenodd" clip-rule="evenodd" fill="#B4C689" d="M100.578,180.582c-0.393,0-0.782,0-1.172,0
			c-0.258-0.115-0.503-0.262-0.771-0.337c-6.979-2.007-13.543-4.978-19.757-8.695c-20.434-12.219-34.24-29.992-43.018-51.871
			C29.667,104.24,26.611,88.1,25.54,71.546c-0.17-2.622-0.366-5.241-0.551-7.862c0-1.659,0-3.319,0-4.979
			c0.369-0.127,0.738-0.238,1.101-0.384c24.005-9.619,47.937-19.438,72.589-27.34c0.258-0.083,0.487-0.266,0.727-0.401
			c0.39,0,0.779,0,1.172,0c0.375,0.185,0.741,0.412,1.134,0.553c13.743,4.96,27.532,9.782,41.213,14.907
			c10.761,4.03,21.383,8.43,32.067,12.665c0,1.66,0,3.321,0,4.979c-0.067,0.478-0.172,0.954-0.205,1.434
			c-0.331,4.721-0.536,9.452-0.993,14.162c-0.996,10.215-2.91,20.265-5.872,30.1c-4.233,14.043-10.452,27.087-19.546,38.674
			c-9.445,12.034-20.976,21.485-34.962,27.758C109.258,177.676,104.861,179.006,100.578,180.582z M164.756,69.85
			c0.044-0.487,0.088-0.973,0.129-1.458c0.196-2.222-0.463-3.346-2.575-4.191c-19.86-7.945-39.733-15.847-60.021-22.66
			c-1.559-0.523-2.988-0.544-4.549-0.02C77.448,48.331,57.577,56.245,37.715,64.18c-2.177,0.868-2.821,1.981-2.61,4.309
			c0.044,0.489,0.085,0.973,0.114,1.46c0.636,10.84,2.2,21.534,5.013,32.026c5.666,21.137,15.624,39.678,32.776,53.813
			c7.638,6.291,16.098,11.155,25.543,14.19c0.905,0.29,2.064,0.266,2.976-0.026c7.16-2.272,13.781-5.694,19.933-9.978
			c14.654-10.213,25.042-23.873,32.125-40.15C160.522,103.889,163.669,87.097,164.756,69.85z"/>
		<path fill-rule="evenodd" clip-rule="evenodd" fill="#B4C689" d="M41.754,69.57c4.784-1.895,9.547-3.876,14.381-5.682
			c14.145-5.285,28.314-10.515,42.497-15.71c0.782-0.289,1.854-0.315,2.627-0.025c18.665,6.973,37.309,14.006,55.961,21.017
			c0.703,0.264,1.107,0.521,1.037,1.427c-0.99,12.781-3.038,25.358-7.163,37.54c-4.822,14.249-12.025,27.076-22.803,37.709
			c-7.846,7.737-16.863,13.695-27.292,17.393c-0.654,0.232-1.547,0.188-2.209-0.059c-15.131-5.569-27.069-15.307-36.42-28.291
			c-9.554-13.262-15.064-28.244-17.976-44.199c-1.205-6.609-1.782-13.332-2.634-20.003C41.716,70.354,41.754,70.011,41.754,69.57z
			 M93.146,110.334c-0.405-0.381-0.759-0.705-1.099-1.043c-2.933-2.932-5.854-5.88-8.801-8.799c-1.954-1.935-3.659-1.947-5.584-0.04
			c-2.981,2.951-5.953,5.917-8.899,8.906c-1.811,1.836-1.864,3.574-0.073,5.376c7.359,7.412,14.738,14.801,22.144,22.168
			c1.934,1.921,3.926,1.724,5.596-0.46C110.292,118.299,124.149,100.153,138,82c1.711-2.245,1.394-4.114-0.938-5.693
			c-2.666-1.802-5.352-3.577-8.03-5.364c-2.93-1.956-4.246-1.737-6.396,1.063c-9.509,12.383-19.013,24.77-28.522,37.15
			C93.819,109.54,93.5,109.901,93.146,110.334z"/>
	</g>
</g>
</svg>
