<?xml version="1.0" encoding="utf-8"?>
<!-- Generator: Adobe Illustrator 16.0.0, SVG Export Plug-In . SVG Version: 6.00 Build 0)  -->
<!DOCTYPE svg PUBLIC "-//W3C//DTD SVG 1.1//EN" "http://www.w3.org/Graphics/SVG/1.1/DTD/svg11.dtd">
<svg version="1.1" id="Capa_1" xmlns="http://www.w3.org/2000/svg" xmlns:xlink="http://www.w3.org/1999/xlink" x="0px" y="0px"
	 width="800px" height="800px" viewBox="0 0 800 800" enable-background="new 0 0 800 800" xml:space="preserve">
<g>
	<path fill="#FF0000" d="M351.785,591.759c0,0.982,0,2.212-0.545,2.896c-3.688,4.758-8.074,8.726-13.832,10.831
		c-5.003,1.826-8.988-0.403-10.041-5.6c-0.422-2.055-0.439-4.213-0.439-6.319c-0.018-38.707-0.123-118.069-0.176-119.035h-28.561
		c0,1.07-0.035,111.627,0.034,132.518c0.019,5.651,0.614,11.27,2.968,16.519c2.527,5.688,6.724,9.286,12.973,10.322
		c4.582,0.79,9.058,0.28,13.411-1.212c8.918-3.071,15.903-8.864,22.064-15.816c0.546-0.613,1.124-1.211,2.16-2.315v17.343h28.631
		v-75.887c0-26.297,0-81.716,0-81.716l-28.647,0.07V591.759L351.785,591.759z"/>
	<path fill="#FF0000" d="M487.146,486.838c-6.039-12.867-18.73-16.273-29.737-13.518c-6.67,1.686-12.077,5.529-16.52,10.497
		c-1.475,1.668-3.089,4.897-3.089,4.897s0-47.521,0-70.234h-28.684v213.372h28.684V619.88c0,0,2.036,2.158,2.773,2.948
		c6.582,7.146,14.568,11.061,24.418,11.146c12.111,0.123,20.538-5.74,24.365-17.255c1.771-5.354,2.352-10.866,2.369-16.448
		c0.034-29.825,0.034-59.649-0.019-89.475C491.709,502.549,490.709,494.441,487.146,486.838z M462.184,596.711
		c0,1.598-0.192,3.213-0.526,4.774c-1.316,6.249-6.073,9.059-12.814,7.671c-4.09-0.843-7.284-3.194-10.022-6.162
		c-0.123-0.14-0.931-1.229-0.931-1.229v-2.335l-0.069-94.739c0,0,0.613-1.756,1.966-2.932c3.37-2.984,7.092-4.863,11.743-4.406
		c3.968,0.386,7.127,2.212,8.602,5.881c1.106,2.791,1.984,5.897,2.002,8.882C462.271,540.308,462.219,568.5,462.184,596.711z"/>
	<path fill="#FF0000" d="M384.004,300.862c6.688,0,12.128-5.439,12.128-12.128v-85.579c0-6.688-5.44-12.128-12.128-12.128
		c-6.687,0-12.129,5.442-12.129,12.128v85.579C371.874,295.42,377.314,300.862,384.004,300.862z"/>
	<polygon fill="#FF0000" points="298.262,418.501 198.905,418.501 198.905,449.077 232.381,449.077 232.381,631.871 
		264.716,631.871 264.716,449.008 298.262,449.008 	"/>
	<path fill="#FF0000" d="M569.088,575.925v20.239c0,7.074-5.723,12.798-12.779,12.798c-7.073,0-12.797-5.724-12.797-12.798V556.79
		h54.928c0,0,0.315-27.473,0.088-39.936c-0.088-5.319-0.491-10.708-1.579-15.904c-2.845-13.48-10.095-23.646-23.663-28.104
		c-3.985-1.316-8.27-2.001-12.464-2.266c-13.956-0.895-26.175,3.091-35.724,13.78c-8.374,9.356-11.287,20.626-11.305,32.844
		c-0.053,23.365-0.158,46.747,0.069,70.112c0.069,5.95,0.736,12.024,2.09,17.817c2.913,12.444,9.707,22.224,21.696,27.63
		c8.76,3.968,18.011,4.16,27.35,2.791c15.062-2.212,25.331-10.286,30.299-24.839c3.739-10.901,3.3-34.793,3.3-34.793
		L569.088,575.925L569.088,575.925z M543.512,510.275c0-7.057,5.724-12.797,12.797-12.797c7.058,0,12.779,5.74,12.779,12.797v22.101
		h-25.576V510.275z"/>
	<path fill="#FF0000" d="M0,0v800h800V0H0z M450.678,166.747h29.135v120.81c0,1.603,0.127,3.22,0.407,4.789
		c0.884,4.979,4.564,7.322,9.358,5.659c5.844-2.021,10.305-6.068,14.086-10.836c0.537-0.682,0.438-1.952,0.438-2.95V166.747h29.347
		l-0.009,158.415h-29.354l0.035-17.019c-3.246,3.196-6.016,6.183-9.061,8.865c-5.396,4.753-11.509,8.298-18.658,9.695
		c-10.978,2.146-20.325-1.322-23.826-12.69c-1.165-3.786-1.869-7.868-1.899-11.821L450.678,166.747L450.678,166.747z
		 M384.004,162.781L384.004,162.781c23.214,0,42.031,18.818,42.031,42.032v82.258c0,23.213-18.817,42.031-42.031,42.031l0,0
		c-23.214,0-42.032-18.818-42.032-42.031v-82.258C341.97,181.6,360.788,162.781,384.004,162.781z M270.938,110.714
		c0,0,13.351,56.702,19.723,83.562h0.011c6.372-26.858,19.722-83.562,19.722-83.562h33.404c0,0-25.664,85.115-37.142,123.074
		c-0.414,1.371-0.603,2.862-0.603,4.301l0.014,87.041h-30.803l0.014-87.041c0-1.438-0.189-2.928-0.604-4.301
		c-11.477-37.959-37.141-123.074-37.141-123.074H270.938z M638.234,615.914c0,38.937-31.106,70.744-70.023,71.569
		c-112.119,2.404-224.29,2.404-336.427,0c-38.9-0.825-70.006-32.634-70.006-71.569V440.795c0-38.918,31.106-70.728,70.006-71.553
		c112.137-2.403,224.308-2.403,336.427,0c38.918,0.825,70.023,32.635,70.023,71.553V615.914L638.234,615.914z"/>
</g>
</svg>
