<?xml version="1.0" encoding="utf-8"?>
<!-- Generator: Adobe Illustrator 16.0.0, SVG Export Plug-In . SVG Version: 6.00 Build 0)  -->
<!DOCTYPE svg PUBLIC "-//W3C//DTD SVG 1.1//EN" "http://www.w3.org/Graphics/SVG/1.1/DTD/svg11.dtd">
<svg version="1.1" xmlns="http://www.w3.org/2000/svg" xmlns:xlink="http://www.w3.org/1999/xlink" x="0px" y="0px" width="200px"
	 height="200px" viewBox="0 0 200 200" enable-background="new 0 0 200 200" xml:space="preserve">
<g id="圖層_2" display="none">
</g>
<g id="圖層_3" display="none">
</g>
<g id="圖層_4" display="none">
</g>
<g id="圖層_1">
	<g>
		<path fill-rule="evenodd" clip-rule="evenodd" fill="#FFFFFF" d="M136.985,147.683c0-26.563,0-52.982,0-79.511
			c-3.291,0-6.503,0-9.84,0c0-0.495,0-0.883,0-1.271c0-2.685,0.008-5.368-0.002-8.051c-0.018-4.172-2.379-6.583-6.528-6.589
			c-11.57-0.019-23.138-0.016-34.708,0c-4.166,0.006-6.538,2.401-6.557,6.559c-0.011,2.721,0,5.439-0.003,8.161
			c-0.002,0.381-0.043,0.761-0.069,1.24c-3.332,0-6.542,0-9.753,0c0,26.559,0,53.007,0,79.461
			C92.057,147.683,114.493,147.683,136.985,147.683z"/>
		<path fill-rule="evenodd" clip-rule="evenodd" fill="#B4C689" d="M47.533,80.415c0.645-1.792,1.017-3.747,1.986-5.344
			c3.104-5.128,7.803-7.323,13.847-6.829c0,26.469,0,52.916,0,79.43c-5.242,0.485-9.548-1.204-12.862-5.303
			c-1.487-1.84-2.434-3.927-2.777-6.281c-0.031-0.21-0.129-0.408-0.193-0.613C47.533,117.122,47.533,98.77,47.533,80.415z"/>
		<path fill-rule="evenodd" clip-rule="evenodd" fill="#B4C689" d="M158.959,135.475c-0.582,1.701-0.936,3.523-1.787,5.079
			c-2.79,5.107-7.979,7.669-14.034,7.125c0-26.44,0-52.892,0-79.417c4.058-0.393,7.737,0.501,10.869,3.233
			c2.57,2.242,4.281,4.985,4.771,8.412c0.025,0.175,0.118,0.339,0.181,0.507C158.959,98.77,158.959,117.122,158.959,135.475z"/>
		<path fill-rule="evenodd" clip-rule="evenodd" fill="#C5C9C9" d="M136.985,147.683c-22.493,0-44.929,0-67.46,0
			c0-26.454,0-52.903,0-79.461c3.211,0,6.422,0,9.753,0c0.026-0.479,0.067-0.859,0.069-1.24c0.003-2.721-0.008-5.44,0.003-8.161
			c0.019-4.157,2.391-6.553,6.557-6.559c11.57-0.016,23.138-0.019,34.708,0c4.149,0.006,6.51,2.417,6.528,6.589
			c0.01,2.683,0.002,5.366,0.002,8.051c0,0.388,0,0.775,0,1.271c3.337,0,6.55,0,9.84,0C136.985,94.7,136.985,121.12,136.985,147.683
			z M111.215,100.002c0-0.591,0-1.024,0-1.458c0-3.951,0.01-7.905-0.007-11.858c-0.006-1.962-0.651-2.585-2.621-2.589
			c-3.518-0.006-7.036-0.004-10.557,0c-2.179,0-2.747,0.572-2.751,2.789c-0.003,3.953-0.002,7.906-0.002,11.858
			c0,0.387,0,0.772,0,1.258c-0.522,0-0.914,0-1.304,0c-3.992,0-7.98-0.003-11.971,0.001c-1.956,0.002-2.643,0.662-2.649,2.585
			c-0.013,3.593-0.014,7.183,0,10.771c0.008,1.881,0.688,2.544,2.57,2.548c4.025,0.004,8.05,0.002,12.076,0.002
			c0.387,0,0.777,0,1.278,0c0,0.521,0,0.912,0,1.302c0,3.917-0.001,7.834,0.002,11.751c0.004,2.298,0.548,2.852,2.794,2.853
			c3.481,0.004,6.962,0.006,10.445,0c2.112-0.002,2.688-0.584,2.694-2.731c0.006-3.953,0-7.906,0.003-11.859
			c0-0.418,0.042-0.833,0.068-1.315c0.519,0,0.909,0,1.304,0c4.062,0,8.125,0.008,12.187-0.006c1.62-0.004,2.344-0.688,2.358-2.312
			c0.03-3.735,0.028-7.471,0.002-11.206c-0.014-1.681-0.737-2.373-2.411-2.381c-3.011-0.014-6.021-0.003-9.031-0.003
			C114.25,100.002,112.804,100.002,111.215,100.002z M119.109,60.268c-10.636,0-21.16,0-31.69,0c0,2.656,0,5.243,0,7.843
			c10.601,0,21.125,0,31.69,0C119.109,65.472,119.109,62.91,119.109,60.268z"/>
		<path fill-rule="evenodd" clip-rule="evenodd" fill="#FFFFFF" d="M119.109,60.268c0,2.643,0,5.204,0,7.843
			c-10.564,0-21.089,0-31.69,0c0-2.6,0-5.187,0-7.843C97.949,60.268,108.474,60.268,119.109,60.268z"/>
	</g>
</g>
</svg>
