<?xml version="1.0" encoding="utf-8"?>
<!-- Generator: Adobe Illustrator 16.0.0, SVG Export Plug-In . SVG Version: 6.00 Build 0)  -->
<!DOCTYPE svg PUBLIC "-//W3C//DTD SVG 1.1//EN" "http://www.w3.org/Graphics/SVG/1.1/DTD/svg11.dtd">
<svg version="1.1" xmlns="http://www.w3.org/2000/svg" xmlns:xlink="http://www.w3.org/1999/xlink" x="0px" y="0px" width="200px"
	 height="200px" viewBox="0 0 200 200" enable-background="new 0 0 200 200" xml:space="preserve">
<g id="圖層_2" display="none">
</g>
<g id="圖層_3" display="none">
</g>
<g id="圖層_4" display="none">
</g>
<g id="圖層_1">
	<g>
		<path fill-rule="evenodd" clip-rule="evenodd" fill="#B4C689" d="M55.348,65.503c0-0.762,0-1.525,0-2.289
			c1.178-2.978,2.482-4.002,5.255-4.005c26.544-0.008,53.087-0.003,79.631-0.003c1.835,0.002,3.417,0.575,4.443,2.185
			c0.354,0.555,0.547,1.212,0.813,1.823c0,0.764,0,1.527,0,2.289c-0.081,0.868-0.182,1.736-0.239,2.605
			c-0.453,6.908-0.901,13.815-1.344,20.723c-0.378,5.854-0.747,11.709-1.125,17.563c-0.443,6.908-0.893,13.815-1.343,20.723
			c-0.327,5.063-0.605,10.132-1.001,15.191c-0.277,3.575-2.515,5.546-6.096,5.551c-7.51,0.005-15.021,0.001-22.533,0
			c-0.303,0-0.606-0.031-0.926-0.049c0-0.204-0.008-0.292,0.001-0.375c0.432-4.318,0.877-8.636,1.288-12.956
			c0.068-0.724,0.094-1.482-0.043-2.189c-0.446-2.329-2.258-3.652-4.973-3.664c-4.372-0.017-8.742-0.011-13.115,0.004
			c-0.581,0.002-1.181,0.045-1.738,0.198c-2.299,0.625-3.514,2.432-3.323,5.102c0.198,2.749,0.524,5.488,0.792,8.231
			c0.182,1.86,0.359,3.721,0.542,5.619c-0.219,0.035-0.358,0.075-0.497,0.075c-7.92,0.004-15.844,0.043-23.764-0.017
			c-3.217-0.024-5.389-2.12-5.641-5.355c-0.385-4.942-0.677-9.89-0.993-14.837c-0.555-8.664-1.096-17.329-1.65-25.993
			c-0.695-10.86-1.396-21.721-2.101-32.579C55.592,67.882,55.457,66.693,55.348,65.503z M97.778,66.811c0,0.616,0.002,1.231,0,1.848
			c-0.004,1.156-0.072,1.226-1.268,1.227c-1.261,0.002-2.524,0.034-3.785-0.012c-0.783-0.028-1.04,0.3-1.018,1.039
			c0.034,1.085,0.027,2.171,0.002,3.256c-0.017,0.708,0.27,1.012,0.989,0.997c1.319-0.027,2.641,0.03,3.96-0.021
			c0.83-0.032,1.17,0.241,1.134,1.106c-0.055,1.318,0.009,2.64-0.024,3.96c-0.018,0.709,0.235,1.019,0.97,0.997
			c1.114-0.037,2.23-0.037,3.344,0c0.726,0.022,1-0.268,0.983-0.985c-0.029-1.379,0.012-2.758-0.018-4.136
			c-0.013-0.687,0.266-0.944,0.942-0.932c1.408,0.027,2.815,0,4.224,0.011c0.627,0.006,0.911-0.267,0.903-0.899
			c-0.016-1.144-0.028-2.289,0.004-3.431c0.02-0.733-0.297-0.979-1.005-0.96c-1.319,0.037-2.64-0.022-3.96,0.022
			c-0.854,0.03-1.142-0.311-1.112-1.143c0.049-1.349,0.001-2.7,0.018-4.048c0.008-0.567-0.193-0.913-0.794-0.917
			c-1.233-0.008-2.465-0.008-3.696,0c-0.529,0.004-0.807,0.264-0.795,0.82C97.791,65.343,97.778,66.077,97.778,66.811z
			 M96.963,93.61c0-1.289,0.027-2.578-0.008-3.866c-0.036-1.36-0.734-2.042-2.089-2.057c-1.757-0.02-3.517-0.018-5.273-0.001
			c-1.386,0.014-2.127,0.708-2.148,2.109c-0.039,2.519-0.039,5.04,0,7.558c0.021,1.383,0.776,2.096,2.154,2.114
			c1.729,0.025,3.458,0.023,5.186,0.002c1.445-0.016,2.145-0.713,2.176-2.166C96.985,96.071,96.963,94.841,96.963,93.61z
			 M113.4,93.626c0-1.231,0.019-2.462-0.004-3.692c-0.027-1.552-0.73-2.24-2.277-2.25c-1.671-0.01-3.34-0.011-5.011,0
			c-1.523,0.01-2.219,0.667-2.234,2.184c-0.028,2.46-0.026,4.921-0.002,7.384c0.016,1.538,0.733,2.209,2.303,2.22
			c1.612,0.01,3.223,0.008,4.833,0c1.687-0.007,2.376-0.705,2.393-2.417C113.409,95.911,113.402,94.768,113.4,93.626z
			 M103.865,113.457c0,1.201,0,2.402,0,3.603c0,0.06-0.002,0.119,0.002,0.176c0.066,1.404,0.741,2.102,2.141,2.123
			c1.728,0.025,3.455,0.022,5.185,0.001c1.433-0.019,2.177-0.726,2.197-2.16c0.035-2.491,0.034-4.982,0.001-7.472
			c-0.019-1.453-0.75-2.14-2.194-2.151c-1.699-0.014-3.399-0.012-5.098,0c-1.522,0.01-2.199,0.667-2.23,2.189
			C103.845,110.995,103.865,112.227,103.865,113.457z M96.965,113.481c0-1.229,0.016-2.461-0.004-3.69
			c-0.025-1.529-0.699-2.204-2.203-2.215c-1.698-0.013-3.397-0.012-5.095,0c-1.484,0.01-2.209,0.712-2.224,2.215
			c-0.025,2.432-0.024,4.863-0.002,7.295c0.014,1.536,0.749,2.261,2.269,2.274c1.669,0.017,3.338,0.016,5.01,0.001
			c1.538-0.014,2.224-0.71,2.246-2.275C96.979,115.884,96.965,114.684,96.965,113.481z M120.301,113.435c0,1.231,0,2.46,0,3.69
			c0,0.03,0,0.059,0.002,0.087c0.036,1.382,0.735,2.121,2.117,2.146c1.757,0.029,3.514,0.028,5.271,0
			c1.384-0.022,2.115-0.762,2.127-2.137c0.018-2.518,0.019-5.038-0.002-7.556c-0.012-1.341-0.741-2.068-2.074-2.084
			c-1.787-0.023-3.573-0.022-5.36,0c-1.336,0.016-2.052,0.735-2.076,2.077C120.286,110.916,120.303,112.176,120.301,113.435z
			 M80.533,93.583c0-1.258,0.014-2.517-0.003-3.775c-0.021-1.393-0.735-2.108-2.128-2.122c-1.755-0.017-3.513-0.018-5.27,0
			c-1.347,0.017-2.094,0.726-2.107,2.051c-0.025,2.547-0.023,5.096-0.002,7.643c0.014,1.33,0.745,2.063,2.084,2.086
			c1.784,0.031,3.573,0.033,5.357,0c1.329-0.025,2.043-0.772,2.064-2.104C80.549,96.103,80.533,94.843,80.533,93.583z
			 M129.822,93.532c0-1.229,0.014-2.461-0.002-3.69c-0.02-1.401-0.727-2.138-2.098-2.155c-1.786-0.02-3.573-0.022-5.359,0.001
			c-1.329,0.018-2.044,0.749-2.057,2.099c-0.017,2.519-0.017,5.037,0,7.556c0.01,1.371,0.745,2.104,2.135,2.124
			c1.755,0.025,3.514,0.029,5.27-0.002c1.375-0.022,2.087-0.767,2.107-2.154C129.838,96.051,129.822,94.791,129.822,93.532z
			 M80.533,134.723c0-1.258,0.014-2.518-0.003-3.777c-0.018-1.363-0.671-2.1-2.016-2.139c-1.814-0.052-3.632-0.05-5.446-0.001
			c-1.36,0.035-2.036,0.757-2.046,2.11c-0.019,2.518-0.021,5.035,0,7.553c0.01,1.353,0.704,2.064,2.061,2.092
			c1.784,0.037,3.571,0.035,5.357,0.001c1.401-0.024,2.072-0.736,2.09-2.149C80.544,137.184,80.533,135.953,80.533,134.723z
			 M129.822,134.702c0-1.259,0.016-2.519-0.003-3.777c-0.022-1.351-0.686-2.082-2.041-2.119c-1.814-0.05-3.632-0.051-5.446,0
			c-1.352,0.039-2.013,0.766-2.021,2.13c-0.018,2.488-0.016,4.979-0.002,7.467c0.007,1.419,0.678,2.133,2.078,2.159
			c1.784,0.034,3.572,0.036,5.357,0c1.392-0.028,2.058-0.752,2.076-2.169C129.836,137.163,129.824,135.932,129.822,134.702z
			 M80.531,113.484c0-1.29,0.021-2.577-0.004-3.866c-0.028-1.294-0.741-2.019-2.027-2.037c-1.816-0.026-3.632-0.026-5.446,0
			c-1.284,0.019-2.017,0.744-2.031,2.036c-0.025,2.547-0.023,5.093-0.002,7.641c0.012,1.335,0.735,2.072,2.074,2.098
			c1.785,0.035,3.571,0.035,5.357,0c1.335-0.025,2.051-0.767,2.074-2.095C80.551,116.002,80.533,114.743,80.531,113.484z"/>
	</g>
</g>
</svg>
