<?xml version="1.0" encoding="utf-8"?>
<!-- Generator: Adobe Illustrator 16.0.0, SVG Export Plug-In . SVG Version: 6.00 Build 0)  -->
<!DOCTYPE svg PUBLIC "-//W3C//DTD SVG 1.1//EN" "http://www.w3.org/Graphics/SVG/1.1/DTD/svg11.dtd">
<svg version="1.1" xmlns="http://www.w3.org/2000/svg" xmlns:xlink="http://www.w3.org/1999/xlink" x="0px" y="0px" width="200px"
	 height="200px" viewBox="0 0 200 200" enable-background="new 0 0 200 200" xml:space="preserve">
<g id="圖層_2" display="none">
</g>
<g id="圖層_3" display="none">
</g>
<g id="圖層_4" display="none">
</g>
<g id="圖層_1">
	<g>
		<path fill="none" d="M129.398,121.941c-1.424-5.125-2.849-10.25-4.327-15.565c-25.375,7.041-50.632,14.049-75.928,21.068
			c0.098,0.432,0.158,0.776,0.252,1.112c2.332,8.396,4.667,16.789,7.005,25.185c0.442,1.596,0.753,1.78,2.357,1.333
			c24.087-6.689,48.17-13.38,72.256-20.07c1.621-0.452,1.792-0.747,1.35-2.347C131.377,129.085,130.389,125.513,129.398,121.941z
			 M70.627,146.834c-2.909,0.851-5.827,1.673-8.768,2.405c-1.317,0.331-2.385-0.283-2.781-1.59
			c-0.866-2.862-1.681-5.743-2.398-8.647c-0.38-1.541,0.336-2.602,1.882-3.051c2.723-0.792,5.459-1.542,8.199-2.267
			c1.392-0.369,2.575,0.115,2.981,1.412c0.926,2.965,1.709,5.974,2.545,8.968c0.041,0.148,0.02,0.318,0.034,0.624
			C72.298,145.705,71.709,146.518,70.627,146.834z"/>
		<path fill="none" d="M119.953,87.95c-0.485-1.76-0.729-1.901-2.5-1.41c-19.519,5.411-39.037,10.821-58.555,16.232
			c-4.595,1.273-9.189,2.551-13.784,3.824c-0.753,0.208-1.604,0.488-1.363,1.45c0.77,3.048,1.649,6.068,2.499,9.146
			c25.369-7.04,50.604-14.045,75.973-21.084C121.433,93.261,120.693,90.606,119.953,87.95z"/>
		<path fill="#C5C9C9" d="M126.656,90.6c-0.811-0.167-1.172-0.525-1.356-1.335c-0.31-1.382-0.689-2.761-1.191-4.081
			c-1.025-2.688-3.784-4.265-6.569-3.576c-4.552,1.126-9.052,2.451-13.587,3.653c-0.586,0.157-1.262,0.229-1.848,0.104
			c-6.447-1.334-12.886-2.718-19.326-4.085c-4.312-0.913-8.626-1.822-12.999-2.746c-0.116,0.4-0.231,0.729-0.302,1.071
			c-1.05,4.978-2.115,9.951-3.125,14.935c-0.186,0.909-0.554,1.36-1.501,1.617c-6.734,1.82-13.371,3.794-20.122,5.548
			c-2.873,0.745-4.73,2.144-5.73,5.058c0,0.711,0,1.423,0,2.133c0,0.096,0.099,0.183,0.124,0.289
			c4.241,15.309,8.439,30.623,12.686,45.928c1.148,4.136,4.048,5.733,8.219,4.582c5.243-1.451,10.478-2.903,15.72-4.356
			c18.879-5.234,37.756-10.464,56.625-15.732c1.037-0.289,2.121-0.749,2.936-1.427c2.026-1.677,2.515-3.904,1.802-6.419
			c-0.69-2.444-1.354-4.902-2.088-7.553c2.697,0.565,5.195,1.077,7.689,1.606c3.872,0.827,6.755-0.978,7.583-4.809
			c1.044-4.815,2.049-9.643,3.071-14.464c0.691-3.264,1.384-6.532,2.087-9.851c-0.567-0.133-1.02-0.248-1.478-0.343
			C144.868,94.425,135.767,92.495,126.656,90.6z M131.014,135.004c-24.085,6.69-48.168,13.381-72.256,20.07
			c-1.604,0.447-1.915,0.263-2.357-1.333c-2.338-8.396-4.674-16.789-7.005-25.185c-0.094-0.336-0.154-0.68-0.252-1.112
			l-2.894-10.252c-0.849-3.078-1.729-6.099-2.499-9.146c-0.242-0.962,0.61-1.243,1.363-1.45c4.594-1.273,9.189-2.551,13.784-3.824
			c19.518-5.411,39.037-10.821,58.555-16.232c1.771-0.492,2.015-0.351,2.5,1.41c0.74,2.657,1.48,5.312,2.27,8.159l2.849,10.268
			c1.478,5.315,2.903,10.44,4.327,15.565c0.99,3.572,1.979,7.144,2.965,10.716C132.806,134.257,132.635,134.552,131.014,135.004z
			 M148.025,103.49c-0.564,2.896-1.164,5.788-1.837,8.661c-0.336,1.434-1.501,2.101-2.988,1.808
			c-2.74-0.545-5.474-1.121-8.199-1.737c-1.653-0.374-2.357-1.345-2.051-3.02c0.511-2.825,1.112-5.637,1.752-8.437
			c0.299-1.304,1.217-1.923,3.069-1.894c2.554,0.572,5.677,1.209,8.759,1.995C147.691,101.158,148.258,102.281,148.025,103.49z"/>
		<path fill="#B4C689" d="M122.222,96.108c-25.369,7.039-50.604,14.044-75.973,21.084l2.894,10.252
			c25.296-7.02,50.553-14.027,75.928-21.068L122.222,96.108z"/>
		<path fill="#B4C689" d="M155.047,67.604c-13.244-2.737-26.661-5.586-39.891-8.384c-11.11-2.353-22.32-4.699-33.434-7.028
			c-3.818-0.802-6.893,1.347-7.458,5.193c-0.207,1.405-0.466,2.807-0.676,4.209c-0.203,1.348-0.408,2.699-0.609,4.094
			c28.639,6.06,57.127,12.089,85.698,18.134c0.139-0.862,0.634-1.596,0.761-2.331C159.829,79.25,161,77.011,161,74.77
			c0-0.79,0-1.579,0-2.37C159,69.71,157.896,68.192,155.047,67.604z"/>
		<path fill="#FFFFFF" d="M146.53,100.865c-3.083-0.785-6.205-1.422-8.759-1.995c-1.853-0.029-2.77,0.59-3.069,1.894
			c-0.64,2.8-1.241,5.611-1.752,8.437c-0.306,1.675,0.398,2.646,2.051,3.02c2.725,0.616,5.459,1.191,8.199,1.737
			c1.487,0.293,2.652-0.374,2.988-1.808c0.674-2.873,1.273-5.765,1.837-8.661C148.258,102.281,147.691,101.158,146.53,100.865z"/>
		<path fill="#B4C689" d="M69.744,135.096c-0.406-1.296-1.589-1.781-2.981-1.412c-2.74,0.725-5.476,1.476-8.199,2.267
			c-1.546,0.449-2.263,1.51-1.882,3.051c0.717,2.904,1.532,5.786,2.398,8.647c0.396,1.307,1.463,1.921,2.781,1.59
			c2.941-0.732,5.859-1.554,8.768-2.405c1.083-0.316,1.671-1.129,1.696-2.147c-0.015-0.306,0.007-0.475-0.034-0.624
			C71.453,141.07,70.67,138.061,69.744,135.096z"/>
	</g>
</g>
</svg>
