<?xml version="1.0" encoding="utf-8"?>
<!-- Generator: Adobe Illustrator 16.0.0, SVG Export Plug-In . SVG Version: 6.00 Build 0)  -->
<!DOCTYPE svg PUBLIC "-//W3C//DTD SVG 1.1//EN" "http://www.w3.org/Graphics/SVG/1.1/DTD/svg11.dtd">
<svg version="1.1" xmlns="http://www.w3.org/2000/svg" xmlns:xlink="http://www.w3.org/1999/xlink" x="0px" y="0px" width="200px"
	 height="200px" viewBox="0 0 200 200" enable-background="new 0 0 200 200" xml:space="preserve">
<g id="圖層_2" display="none">
</g>
<g id="圖層_3" display="none">
</g>
<g id="圖層_4" display="none">
</g>
<g id="圖層_1">
	<g>
		<g>
			<path fill-rule="evenodd" clip-rule="evenodd" d="M54.757,145.333c0-30.254,0-60.51,0-90.765
				c0.054-0.124,0.138-0.243,0.157-0.373c0.373-2.421,1.538-4.368,3.417-5.93c1.416-1.176,3.094-1.69,4.83-2.101
				c18.769,0,37.538,0,56.307,0c3.027,0.49,5.216,2.314,7.254,4.447c2.15,2.25,4.363,4.442,6.602,6.604
				c2.322,2.241,3.415,4.918,3.392,8.153c-0.053,7.591-0.017,15.18-0.017,22.771c0,0.367,0,0.734,0,1.31
				c0.415-0.382,0.668-0.602,0.905-0.838c2.77-2.771,5.52-5.562,8.311-8.311c4.466-4.395,10.938-4.021,14.585,0.971
				c0.911,1.245,1.235,2.917,1.828,4.393c0,0.7,0,1.401,0,2.101c-0.48,3.031-2.305,5.21-4.411,7.293
				c-6.873,6.792-13.672,13.658-20.518,20.477c-0.513,0.511-0.718,1.015-0.716,1.737c0.024,8.717,0.017,17.435,0.015,26.152
				c-0.001,6.389-3.945,10.313-10.362,10.314c-3.677,0.001-7.352,0-11.029,0c-16.803,0-33.609-0.007-50.413,0.006
				c-3.397,0.003-6.319-1.079-8.246-3.94C55.762,148.485,55.372,146.834,54.757,145.333z M111.488,52.468c-0.462,0-0.772,0-1.085,0
				c-15.192,0-30.385-0.001-45.578,0.001c-2.587,0-3.761,1.187-3.761,3.801c-0.001,29.126-0.001,58.251,0,87.377
				c0,2.604,1.178,3.787,3.775,3.787c20.583,0.002,41.168,0.001,61.751,0c2.624,0,3.805-1.166,3.806-3.756
				c0.003-6.651,0.001-13.303-0.001-19.953c0-0.297-0.024-0.595-0.037-0.868c-0.739,0.366-1.389,0.78-2.097,1.02
				c-4.069,1.384-8.16,2.701-12.227,4.092c-1.403,0.48-2.704,0.521-3.807-0.564c-1.141-1.123-1.081-2.454-0.586-3.892
				c1.365-3.966,2.628-7.966,4.023-11.92c0.325-0.92,0.874-1.847,1.555-2.542c4.112-4.202,8.285-8.348,12.462-12.487
				c0.51-0.506,0.735-1.002,0.733-1.731c-0.027-7.456-0.017-14.913-0.019-22.369c0-0.337-0.032-0.675-0.051-1.086
				c-0.455,0-0.833,0-1.211,0c-4.726,0-9.452,0.009-14.178-0.005c-2.186-0.006-3.454-1.278-3.464-3.461
				c-0.015-3.36-0.004-6.721-0.004-10.082C111.488,56.085,111.488,54.341,111.488,52.468z M132.176,111.547
				c5-4.981,10.017-9.979,14.97-14.913c-1.397-1.397-2.85-2.849-4.176-4.175c-4.969,4.948-9.993,9.951-14.968,14.908
				C129.382,108.75,130.811,110.181,132.176,111.547z M117.867,52.509c0,4.232,0,8.37,0,12.491c4.214,0,8.353,0,12.49,0
				c0.137-1.207-0.309-2.118-1.088-2.896c-2.842-2.843-5.684-5.685-8.531-8.521C119.96,52.806,119.048,52.357,117.867,52.509z
				 M151.879,91.967c1.097-1.055,2.315-2.1,3.382-3.283c1.118-1.239,0.987-3.013-0.145-4.175c-1.147-1.179-2.998-1.322-4.256-0.185
				c-1.18,1.066-2.232,2.273-3.269,3.344C149.03,89.109,150.475,90.559,151.879,91.967z M127.639,116.377
				c-1.485-1.485-2.931-2.931-4.454-4.454c-0.492,0.539-1.275,1.059-1.564,1.778c-0.825,2.053-1.45,4.187-2.265,6.62
				C122.278,118.811,125.667,119.059,127.639,116.377z"/>
			<path fill-rule="evenodd" clip-rule="evenodd" fill="#B4C689" d="M132.176,111.547c-1.365-1.367-2.793-2.797-4.174-4.18
				c4.976-4.957,9.999-9.96,14.968-14.908c1.326,1.326,2.778,2.778,4.176,4.175C142.193,101.569,137.176,106.566,132.176,111.547z"
				/>
			<path fill-rule="evenodd" clip-rule="evenodd" fill="#B4C689" d="M151.879,91.967c-1.405-1.408-2.85-2.857-4.288-4.299
				c1.037-1.07,2.089-2.277,3.269-3.344c1.259-1.138,3.109-0.995,4.256,0.185c1.132,1.162,1.263,2.936,0.145,4.175
				C154.195,89.867,152.977,90.912,151.879,91.967z"/>
			<path fill-rule="evenodd" clip-rule="evenodd" fill="#B4C689" d="M127.639,116.377c-1.971,2.681-5.36,2.433-8.283,3.944
				c0.815-2.434,1.44-4.567,2.265-6.62c0.289-0.719,1.072-1.239,1.564-1.778C124.708,113.446,126.153,114.893,127.639,116.377z"/>
			<path fill-rule="evenodd" clip-rule="evenodd" d="M92.681,77.68c7.213,0,14.426-0.008,21.639,0.004
				c2.509,0.005,4.096,2.107,3.246,4.268c-0.481,1.22-1.422,1.873-2.713,2.012c-0.347,0.038-0.7,0.018-1.049,0.018
				c-14.147,0.001-28.294,0.001-42.44,0c-2.523,0-3.988-1.155-3.989-3.147c-0.003-1.992,1.463-3.155,3.981-3.155
				C78.464,77.68,85.572,77.68,92.681,77.68z"/>
			<path fill-rule="evenodd" clip-rule="evenodd" d="M86.211,96.59c-5.112-0.001-10.224-0.008-15.336,0.005
				c-1.373,0.003-2.465-0.469-3.131-1.712c-1.06-1.977,0.255-4.365,2.525-4.57c0.695-0.063,1.399-0.026,2.1-0.026
				c9.56-0.001,19.119,0,28.678,0c0.351,0,0.702-0.01,1.05,0.008c1.75,0.099,3.06,1.422,3.081,3.102
				c0.023,1.724-1.306,3.146-3.103,3.174c-2.977,0.049-5.953,0.017-8.929,0.018C90.834,96.591,88.523,96.59,86.211,96.59z"/>
			<path fill-rule="evenodd" clip-rule="evenodd" d="M86.378,102.893c5.146,0,10.294-0.016,15.441,0.008
				c2.464,0.011,4.039,2.236,3.104,4.363c-0.561,1.276-1.6,1.914-2.992,1.926c-2.031,0.017-4.062,0.006-6.093,0.006
				c-8.334,0-16.667,0.008-25.001-0.005c-2.502-0.004-4.087-2.113-3.252-4.271c0.5-1.293,1.638-2.021,3.244-2.024
				C76.013,102.888,81.195,102.893,86.378,102.893z"/>
			<path fill-rule="evenodd" clip-rule="evenodd" d="M86.167,121.802c-5.147-0.001-10.295-0.001-15.441,0
				c-1.437,0-2.498-0.626-3.1-1.932c-0.522-1.133-0.246-2.495,0.64-3.404c0.764-0.782,1.723-0.977,2.783-0.975
				c7.563,0.014,15.126,0.008,22.69,0.008c2.626,0,5.252-0.007,7.878,0.002c2.14,0.008,3.563,1.277,3.56,3.153
				c-0.002,1.876-1.424,3.142-3.569,3.145C96.461,121.807,91.314,121.802,86.167,121.802z"/>
			<path fill-rule="evenodd" clip-rule="evenodd" d="M105.162,141.131c-3.01,0-6.022,0.007-9.033-0.003
				c-2.13-0.006-3.557-1.294-3.542-3.171c0.013-1.872,1.437-3.124,3.588-3.127c6.023-0.006,12.046-0.007,18.068,0.001
				c2.13,0.003,3.554,1.294,3.541,3.171c-0.014,1.873-1.436,3.122-3.586,3.127C111.185,141.137,108.174,141.131,105.162,141.131z"/>
		</g>
	</g>
</g>
</svg>
