<?xml version="1.0" encoding="utf-8"?>
<!-- Generator: Adobe Illustrator 16.0.0, SVG Export Plug-In . SVG Version: 6.00 Build 0)  -->
<!DOCTYPE svg PUBLIC "-//W3C//DTD SVG 1.1//EN" "http://www.w3.org/Graphics/SVG/1.1/DTD/svg11.dtd">
<svg version="1.1" xmlns="http://www.w3.org/2000/svg" xmlns:xlink="http://www.w3.org/1999/xlink" x="0px" y="0px" width="200px"
	 height="200px" viewBox="0 0 200 200" enable-background="new 0 0 200 200" xml:space="preserve">
<g id="圖層_2" display="none">
</g>
<g id="圖層_3" display="none">
</g>
<g id="圖層_4" display="none">
</g>
<g id="圖層_1">
	<g>
		<g>
			<path fill-rule="evenodd" clip-rule="evenodd" d="M163.336,127.675c0,2.988,0,5.977,0,8.965
				c-0.227,0.532-0.439,1.072-0.682,1.597c-1.601,3.47-4.338,4.89-7.836,4.89c-18.323,0.006-36.646,0.002-54.972,0.002
				c-14.765,0-29.529,0.002-44.294,0c-2.743-0.001-5.175-0.833-6.871-3.261c-0.68-0.974-1.107-2.145-1.649-3.228
				c0-2.988,0-5.977,0-8.965c0.672-1.031,1.618-1.323,2.749-1.253c0.965,0.06,1.936,0.012,2.97,0.012c0-0.712,0-1.234,0-1.756
				c0-21.799-0.006-43.598,0.017-65.398c0.001-1.196,0.089-2.435,0.386-3.582c1.311-5.053,4.947-7.878,10.134-7.879
				c27.931-0.014,55.862-0.026,83.793,0.041c1.651,0.003,3.43,0.372,4.92,1.103c3.958,1.938,5.608,5.556,5.61,10.077
				c0.014,21.92,0.006,43.841,0.006,65.762c0,0.507,0,1.016,0,1.633c1.092,0,2.035,0.048,2.97-0.011
				C161.72,126.352,162.667,126.645,163.336,127.675z M145.853,126.434c0-0.61,0-1.012,0-1.413c0-20.551,0-41.102-0.001-61.653
				c0-2.343-0.622-3-2.847-3c-25.21-0.002-50.418-0.002-75.628,0c-2.268,0-2.854,0.644-2.854,3.115c0,20.511,0,41.02,0,61.53
				c0,0.432,0,0.864,0,1.422c0.572,0,1.017,0,1.462,0c8.857,0,17.715,0.027,26.572-0.017c2.434-0.012,4.301,0.853,5.655,3.083
				c0.326,0.535,1.145,1.009,1.75,1.026c3.48,0.097,6.966,0.09,10.445,0.004c0.581-0.014,1.386-0.432,1.683-0.935
				c1.431-2.436,3.472-3.207,6.062-3.187c8.744,0.066,17.488,0.025,26.231,0.025C144.825,126.434,145.27,126.434,145.853,126.434z
				 M153.593,126.365c0-0.493,0-0.926,0-1.358c0-21.966,0-43.932-0.002-65.898c0-4.553-2.316-7.013-6.609-7.014
				c-27.862-0.001-55.724-0.001-83.587,0c-4.295,0.001-6.614,2.459-6.614,7.01c-0.001,21.965,0,43.932,0,65.898
				c0,0.432,0,0.866,0,1.365c1.272,0,2.424,0,3.713,0c0-0.579,0-1.091,0-1.604c0-20.511-0.004-41.024,0.004-61.538
				c0-4.477,2.356-7.09,6.471-7.093c25.476-0.016,50.955-0.016,76.432,0.018c1.028,0.002,2.146,0.185,3.071,0.638
				c2.58,1.266,3.413,3.681,3.411,6.555c-0.006,20.472-0.004,40.944-0.004,61.417c0,0.512,0,1.024,0,1.604
				C151.163,126.365,152.317,126.365,153.593,126.365z M159.274,130.753c-0.364-0.022-0.664-0.056-0.961-0.056
				c-13.51-0.002-27.023,0.004-40.533-0.014c-1.04-0.002-1.794,0.303-2.349,1.301c-0.927,1.659-2.316,2.681-4.153,2.722
				c-3.895,0.087-7.792,0.136-11.684,0.093c-2.059-0.022-3.71-1.026-4.748-2.979c-0.534-1.005-1.357-1.134-2.314-1.132
				c-13.435,0.012-26.871,0.007-40.306,0.011c-0.399,0-0.797,0.044-1.153,0.066c0,1.644-0.089,3.139,0.024,4.617
				c0.127,1.648,1.092,2.72,2.549,3.198c0.636,0.21,1.339,0.248,2.013,0.248c33.003,0.012,66.004,0.011,99.005,0.008
				c0.378,0,0.758,0.015,1.134-0.024c1.751-0.18,3.276-1.447,3.444-3.136C159.397,134.091,159.274,132.476,159.274,130.753z"/>
			<path fill-rule="evenodd" clip-rule="evenodd" fill="#B4C689" d="M153.593,126.365c-1.276,0-2.43,0-3.715,0
				c0-0.58,0-1.092,0-1.604c0-20.473-0.002-40.946,0.004-61.417c0.002-2.874-0.832-5.289-3.411-6.555
				c-0.924-0.453-2.043-0.636-3.071-0.638c-25.477-0.033-50.956-0.033-76.432-0.018c-4.115,0.002-6.471,2.616-6.471,7.093
				c-0.009,20.513-0.004,41.026-0.004,61.538c0,0.513,0,1.025,0,1.604c-1.289,0-2.44,0-3.713,0c0-0.499,0-0.933,0-1.365
				c0-21.966-0.001-43.933,0-65.898c0-4.551,2.318-7.009,6.614-7.01c27.863-0.001,55.725-0.001,83.587,0
				c4.293,0.001,6.609,2.461,6.609,7.014c0.002,21.967,0.002,43.932,0.002,65.898C153.593,125.438,153.593,125.872,153.593,126.365z
				"/>
			<path fill-rule="evenodd" clip-rule="evenodd" fill="#B4C689" d="M159.274,130.753c0,1.723,0.124,3.338-0.032,4.924
				c-0.167,1.689-1.693,2.956-3.444,3.136c-0.376,0.039-0.756,0.024-1.134,0.024c-33.001,0.002-66.002,0.004-99.005-0.008
				c-0.674,0-1.377-0.038-2.013-0.248c-1.457-0.478-2.421-1.55-2.549-3.198c-0.114-1.478-0.024-2.974-0.024-4.617
				c0.356-0.022,0.754-0.066,1.153-0.066c13.436-0.004,26.871,0,40.306-0.011c0.957-0.001,1.781,0.127,2.314,1.132
				c1.038,1.953,2.689,2.957,4.748,2.979c3.893,0.043,7.79-0.005,11.684-0.093c1.837-0.041,3.227-1.063,4.153-2.722
				c0.554-0.998,1.309-1.303,2.349-1.301c13.51,0.018,27.023,0.011,40.533,0.014C158.61,130.697,158.91,130.731,159.274,130.753z"/>
			<path fill-rule="evenodd" clip-rule="evenodd" d="M105.073,122.393c-9.994,0-19.986,0.001-29.98,0
				c-2.367,0-2.912-0.591-2.913-3.152c-0.004-4.885-0.006-9.771,0.001-14.656c0.002-2.305,0.682-3.021,2.859-3.021
				c20.1-0.002,40.198-0.002,60.295,0c2.177,0,2.855,0.716,2.859,3.024c0.006,4.885,0.004,9.77,0,14.657
				c-0.002,2.559-0.547,3.148-2.917,3.148C125.209,122.394,115.14,122.393,105.073,122.393z M134.157,105.927
				c-19.334,0-38.611,0-57.919,0c0,4.082,0,8.091,0,12.118c19.359,0,38.634,0,57.919,0
				C134.157,113.956,134.157,109.974,134.157,105.927z"/>
			<path fill-rule="evenodd" clip-rule="evenodd" d="M105.231,64.389c8.663,0.056,15.351,7.447,15.505,16.046
				c0.182,10.137-7.358,17.201-15.628,17.164c-8.229-0.035-15.587-7.251-15.473-17.232C89.732,71.787,96.901,64.355,105.231,64.389z
				 M113.013,89.843c3.45-3.071,4.633-8.783,2.921-13.344c-1.986-5.297-6.591-8.207-12.218-7.724
				c-4.552,0.392-8.814,4.575-9.853,9.67c-0.835,4.111,0.817,9.559,3.49,11.233c0.046-2.841,0.998-5.211,3.061-6.951
				c-1.683-3.757-1.273-6.652,1.194-8.748c2.071-1.76,5.187-1.729,7.234,0.075c2.424,2.132,2.81,5.039,1.111,8.665
				C111.994,84.473,112.987,86.821,113.013,89.843z M109.068,90.659c-0.055-0.681-0.065-1.365-0.172-2.035
				c-0.321-2.038-1.791-3.372-3.67-3.385c-1.94-0.013-3.464,1.319-3.745,3.42c-0.149,1.106-0.135,2.245-0.095,3.366
				c0.01,0.269,0.398,0.725,0.646,0.75c1.67,0.168,3.362,0.438,5.023,0.299C109.032,92.906,109.022,92.743,109.068,90.659z
				 M107.027,78.971c0.022-1.109-0.777-1.972-1.833-1.976c-1.014-0.003-1.801,0.778-1.849,1.837
				c-0.047,1.068,0.779,2.037,1.776,2.084C106.096,80.963,107.005,80.034,107.027,78.971z"/>
			<path fill-rule="evenodd" clip-rule="evenodd" d="M79.984,64.535c0,1.346,0,2.651,0,4.047c-3.878,0-7.702,0-11.615,0
				c0-1.337,0-2.644,0-4.047C72.211,64.535,76.068,64.535,79.984,64.535z"/>
			<path fill-rule="evenodd" clip-rule="evenodd" d="M83.863,68.662c0-1.49,0-2.768,0-4.134c1.292,0,2.557,0,3.969,0
				c0,1.151,0.033,2.31-0.028,3.463c-0.012,0.234-0.364,0.627-0.576,0.64C86.143,68.697,85.054,68.662,83.863,68.662z"/>
			<path fill-rule="evenodd" clip-rule="evenodd" fill="#FFFFFF" d="M134.157,105.927c0,4.047,0,8.029,0,12.118
				c-19.286,0-38.56,0-57.919,0c0-4.027,0-8.036,0-12.118C95.546,105.927,114.822,105.927,134.157,105.927z M91.637,114.053
				c0-1.409,0-2.749,0-4.119c-1.351,0-2.612,0-3.842,0c0,1.447,0,2.794,0,4.119C89.126,114.053,90.36,114.053,91.637,114.053z
				 M95.52,109.897c0,1.465,0,2.807,0,4.141c1.337,0,2.596,0,3.858,0c0-1.418,0-2.751,0-4.141
				C98.061,109.897,96.835,109.897,95.52,109.897z M107.112,114.074c0-1.376,0-2.742,0-4.149c-1.325,0-2.584,0-3.866,0
				c0,1.426,0,2.766,0,4.149C104.555,114.074,105.787,114.074,107.112,114.074z M79.99,114.024c1.368,0,2.622,0,3.88,0
				c0-1.409,0-2.721,0-4.105c-1.323,0-2.58,0-3.88,0C79.99,111.317,79.99,112.63,79.99,114.024z"/>
			<path fill-rule="evenodd" clip-rule="evenodd" fill="#FFFFFF" d="M113.013,89.843c-0.026-3.022-1.02-5.37-3.059-7.124
				c1.699-3.626,1.313-6.533-1.111-8.665c-2.047-1.804-5.163-1.835-7.234-0.075c-2.467,2.096-2.877,4.991-1.194,8.748
				c-2.063,1.739-3.015,4.109-3.061,6.951c-2.673-1.674-4.326-7.122-3.49-11.233c1.038-5.095,5.301-9.279,9.853-9.67
				c5.626-0.482,10.231,2.427,12.218,7.724C117.646,81.06,116.463,86.772,113.013,89.843z"/>
			<path fill-rule="evenodd" clip-rule="evenodd" fill="#85B248" d="M109.068,90.659c-0.046,2.084-0.037,2.247-2.013,2.415
				c-1.661,0.139-3.353-0.131-5.023-0.299c-0.247-0.024-0.636-0.48-0.646-0.75c-0.041-1.121-0.055-2.259,0.095-3.366
				c0.281-2.101,1.805-3.434,3.745-3.42c1.879,0.013,3.349,1.348,3.67,3.385C109.003,89.294,109.014,89.979,109.068,90.659z"/>
			<path fill-rule="evenodd" clip-rule="evenodd" fill="#85B248" d="M107.027,78.971c-0.022,1.063-0.931,1.993-1.905,1.945
				c-0.998-0.047-1.823-1.016-1.776-2.084c0.048-1.059,0.835-1.841,1.849-1.837C106.25,76.999,107.049,77.862,107.027,78.971z"/>
			<path fill-rule="evenodd" clip-rule="evenodd" d="M91.637,114.053c-1.277,0-2.511,0-3.842,0c0-1.325,0-2.672,0-4.119
				c1.23,0,2.491,0,3.842,0C91.637,111.304,91.637,112.645,91.637,114.053z"/>
			<path fill-rule="evenodd" clip-rule="evenodd" d="M95.52,109.897c1.315,0,2.541,0,3.858,0c0,1.39,0,2.722,0,4.141
				c-1.262,0-2.521,0-3.858,0C95.52,112.704,95.52,111.362,95.52,109.897z"/>
			<path fill-rule="evenodd" clip-rule="evenodd" d="M107.112,114.074c-1.325,0-2.558,0-3.866,0c0-1.383,0-2.723,0-4.149
				c1.282,0,2.541,0,3.866,0C107.112,111.332,107.112,112.697,107.112,114.074z"/>
			<path fill-rule="evenodd" clip-rule="evenodd" d="M79.99,114.024c0-1.394,0-2.708,0-4.105c1.301,0,2.557,0,3.88,0
				c0,1.384,0,2.696,0,4.105C82.612,114.024,81.358,114.024,79.99,114.024z"/>
		</g>
	</g>
</g>
</svg>
